G04 #@! TF.FileFunction,Legend,Top*
%FSLAX46Y46*%
G04 Gerber Fmt 4.6, Leading zero omitted, Abs format (unit mm)*
G04 Created by KiCad (PCBNEW 4.0.6) date 06/11/17 17:15:35*
%MOMM*%
%LPD*%
G01*
G04 APERTURE LIST*
%ADD10C,0.100000*%
%ADD11C,0.120000*%
%ADD12C,0.150000*%
G04 APERTURE END LIST*
D10*
D11*
X79930000Y-61420000D02*
X79930000Y-73580000D01*
X79930000Y-73580000D02*
X95330000Y-73580000D01*
X95330000Y-73580000D02*
X95330000Y-61420000D01*
X95330000Y-61420000D02*
X79930000Y-61420000D01*
X79930000Y-72080000D02*
X79930000Y-70280000D01*
X79930000Y-70280000D02*
X95330000Y-70280000D01*
X95330000Y-70280000D02*
X95330000Y-72080000D01*
X95330000Y-72080000D02*
X79930000Y-72080000D01*
X82820000Y-73580000D02*
X84820000Y-73580000D01*
X84820000Y-73580000D02*
X84570000Y-72080000D01*
X84570000Y-72080000D02*
X83070000Y-72080000D01*
X83070000Y-72080000D02*
X82820000Y-73580000D01*
X90440000Y-73580000D02*
X92440000Y-73580000D01*
X92440000Y-73580000D02*
X92190000Y-72080000D01*
X92190000Y-72080000D02*
X90690000Y-72080000D01*
X90690000Y-72080000D02*
X90440000Y-73580000D01*
X84120000Y-60620000D02*
X83820000Y-61220000D01*
X83820000Y-61220000D02*
X83520000Y-60620000D01*
X83520000Y-60620000D02*
X84120000Y-60620000D01*
X123140000Y-50690000D02*
X110540000Y-50690000D01*
X110540000Y-50690000D02*
X110540000Y-61040000D01*
X110540000Y-61040000D02*
X111490000Y-61040000D01*
X111490000Y-61040000D02*
X111240000Y-61540000D01*
X111240000Y-61540000D02*
X113140000Y-61540000D01*
X113140000Y-61540000D02*
X113190000Y-61540000D01*
X113190000Y-61540000D02*
X112940000Y-61040000D01*
X112940000Y-61040000D02*
X118340000Y-61040000D01*
X118340000Y-61040000D02*
X118040000Y-61540000D01*
X118040000Y-61540000D02*
X123140000Y-61540000D01*
X123140000Y-61540000D02*
X123140000Y-50690000D01*
X60900000Y-43140000D02*
X66020000Y-43140000D01*
X60900000Y-45760000D02*
X66020000Y-45760000D01*
X60900000Y-43140000D02*
X60900000Y-43454000D01*
X60900000Y-45446000D02*
X60900000Y-45760000D01*
X66020000Y-43140000D02*
X66020000Y-43454000D01*
X66020000Y-45446000D02*
X66020000Y-45760000D01*
X72430000Y-53280000D02*
X72430000Y-58400000D01*
X69810000Y-53280000D02*
X69810000Y-58400000D01*
X72430000Y-53280000D02*
X72116000Y-53280000D01*
X70124000Y-53280000D02*
X69810000Y-53280000D01*
X72430000Y-58400000D02*
X72116000Y-58400000D01*
X70124000Y-58400000D02*
X69810000Y-58400000D01*
X106720000Y-53360000D02*
X106720000Y-58480000D01*
X104100000Y-53360000D02*
X104100000Y-58480000D01*
X106720000Y-53360000D02*
X106406000Y-53360000D01*
X104414000Y-53360000D02*
X104100000Y-53360000D01*
X106720000Y-58480000D02*
X106406000Y-58480000D01*
X104414000Y-58480000D02*
X104100000Y-58480000D01*
X67260000Y-50690000D02*
X54660000Y-50690000D01*
X54660000Y-50690000D02*
X54660000Y-61040000D01*
X54660000Y-61040000D02*
X55610000Y-61040000D01*
X55610000Y-61040000D02*
X55360000Y-61540000D01*
X55360000Y-61540000D02*
X57260000Y-61540000D01*
X57260000Y-61540000D02*
X57310000Y-61540000D01*
X57310000Y-61540000D02*
X57060000Y-61040000D01*
X57060000Y-61040000D02*
X62460000Y-61040000D01*
X62460000Y-61040000D02*
X62160000Y-61540000D01*
X62160000Y-61540000D02*
X67260000Y-61540000D01*
X67260000Y-61540000D02*
X67260000Y-50690000D01*
X71810000Y-42650000D02*
X71810000Y-46250000D01*
X71821522Y-42611522D02*
G75*
G02X76260000Y-44450000I1838478J-1838478D01*
G01*
X71821522Y-46288478D02*
G75*
G03X76260000Y-44450000I1838478J1838478D01*
G01*
X82960000Y-57740000D02*
X82960000Y-54020000D01*
X84680000Y-57740000D02*
X84680000Y-54020000D01*
X92300000Y-54020000D02*
X92300000Y-57740000D01*
X90580000Y-54020000D02*
X90580000Y-57740000D01*
X95660000Y-57740000D02*
X95660000Y-54020000D01*
X97380000Y-57740000D02*
X97380000Y-54020000D01*
X79600000Y-54020000D02*
X79600000Y-57740000D01*
X77880000Y-54020000D02*
X77880000Y-57740000D01*
D12*
X88296667Y-59952381D02*
X88296667Y-60666667D01*
X88249047Y-60809524D01*
X88153809Y-60904762D01*
X88010952Y-60952381D01*
X87915714Y-60952381D01*
X89296667Y-60952381D02*
X88725238Y-60952381D01*
X89010952Y-60952381D02*
X89010952Y-59952381D01*
X88915714Y-60095238D01*
X88820476Y-60190476D01*
X88725238Y-60238095D01*
X112291905Y-49982381D02*
X112291905Y-48982381D01*
X112672858Y-48982381D01*
X112768096Y-49030000D01*
X112815715Y-49077619D01*
X112863334Y-49172857D01*
X112863334Y-49315714D01*
X112815715Y-49410952D01*
X112768096Y-49458571D01*
X112672858Y-49506190D01*
X112291905Y-49506190D01*
X113244286Y-49077619D02*
X113291905Y-49030000D01*
X113387143Y-48982381D01*
X113625239Y-48982381D01*
X113720477Y-49030000D01*
X113768096Y-49077619D01*
X113815715Y-49172857D01*
X113815715Y-49268095D01*
X113768096Y-49410952D01*
X113196667Y-49982381D01*
X113815715Y-49982381D01*
X63293334Y-42497143D02*
X63245715Y-42544762D01*
X63102858Y-42592381D01*
X63007620Y-42592381D01*
X62864762Y-42544762D01*
X62769524Y-42449524D01*
X62721905Y-42354286D01*
X62674286Y-42163810D01*
X62674286Y-42020952D01*
X62721905Y-41830476D01*
X62769524Y-41735238D01*
X62864762Y-41640000D01*
X63007620Y-41592381D01*
X63102858Y-41592381D01*
X63245715Y-41640000D01*
X63293334Y-41687619D01*
X64245715Y-42592381D02*
X63674286Y-42592381D01*
X63960000Y-42592381D02*
X63960000Y-41592381D01*
X63864762Y-41735238D01*
X63769524Y-41830476D01*
X63674286Y-41878095D01*
X70953334Y-51157143D02*
X70905715Y-51204762D01*
X70762858Y-51252381D01*
X70667620Y-51252381D01*
X70524762Y-51204762D01*
X70429524Y-51109524D01*
X70381905Y-51014286D01*
X70334286Y-50823810D01*
X70334286Y-50680952D01*
X70381905Y-50490476D01*
X70429524Y-50395238D01*
X70524762Y-50300000D01*
X70667620Y-50252381D01*
X70762858Y-50252381D01*
X70905715Y-50300000D01*
X70953334Y-50347619D01*
X71334286Y-50347619D02*
X71381905Y-50300000D01*
X71477143Y-50252381D01*
X71715239Y-50252381D01*
X71810477Y-50300000D01*
X71858096Y-50347619D01*
X71905715Y-50442857D01*
X71905715Y-50538095D01*
X71858096Y-50680952D01*
X71286667Y-51252381D01*
X71905715Y-51252381D01*
X105243334Y-51157143D02*
X105195715Y-51204762D01*
X105052858Y-51252381D01*
X104957620Y-51252381D01*
X104814762Y-51204762D01*
X104719524Y-51109524D01*
X104671905Y-51014286D01*
X104624286Y-50823810D01*
X104624286Y-50680952D01*
X104671905Y-50490476D01*
X104719524Y-50395238D01*
X104814762Y-50300000D01*
X104957620Y-50252381D01*
X105052858Y-50252381D01*
X105195715Y-50300000D01*
X105243334Y-50347619D01*
X105576667Y-50252381D02*
X106195715Y-50252381D01*
X105862381Y-50633333D01*
X106005239Y-50633333D01*
X106100477Y-50680952D01*
X106148096Y-50728571D01*
X106195715Y-50823810D01*
X106195715Y-51061905D01*
X106148096Y-51157143D01*
X106100477Y-51204762D01*
X106005239Y-51252381D01*
X105719524Y-51252381D01*
X105624286Y-51204762D01*
X105576667Y-51157143D01*
X64031905Y-49982381D02*
X64031905Y-48982381D01*
X64412858Y-48982381D01*
X64508096Y-49030000D01*
X64555715Y-49077619D01*
X64603334Y-49172857D01*
X64603334Y-49315714D01*
X64555715Y-49410952D01*
X64508096Y-49458571D01*
X64412858Y-49506190D01*
X64031905Y-49506190D01*
X65555715Y-49982381D02*
X64984286Y-49982381D01*
X65270000Y-49982381D02*
X65270000Y-48982381D01*
X65174762Y-49125238D01*
X65079524Y-49220476D01*
X64984286Y-49268095D01*
X77767619Y-44545238D02*
X77720000Y-44640476D01*
X77624762Y-44735714D01*
X77481905Y-44878571D01*
X77434286Y-44973810D01*
X77434286Y-45069048D01*
X77672381Y-45021429D02*
X77624762Y-45116667D01*
X77529524Y-45211905D01*
X77339048Y-45259524D01*
X77005714Y-45259524D01*
X76815238Y-45211905D01*
X76720000Y-45116667D01*
X76672381Y-45021429D01*
X76672381Y-44830952D01*
X76720000Y-44735714D01*
X76815238Y-44640476D01*
X77005714Y-44592857D01*
X77339048Y-44592857D01*
X77529524Y-44640476D01*
X77624762Y-44735714D01*
X77672381Y-44830952D01*
X77672381Y-45021429D01*
X77672381Y-43640476D02*
X77672381Y-44211905D01*
X77672381Y-43926191D02*
X76672381Y-43926191D01*
X76815238Y-44021429D01*
X76910476Y-44116667D01*
X76958095Y-44211905D01*
X83653334Y-51252381D02*
X83320000Y-50776190D01*
X83081905Y-51252381D02*
X83081905Y-50252381D01*
X83462858Y-50252381D01*
X83558096Y-50300000D01*
X83605715Y-50347619D01*
X83653334Y-50442857D01*
X83653334Y-50585714D01*
X83605715Y-50680952D01*
X83558096Y-50728571D01*
X83462858Y-50776190D01*
X83081905Y-50776190D01*
X84605715Y-51252381D02*
X84034286Y-51252381D01*
X84320000Y-51252381D02*
X84320000Y-50252381D01*
X84224762Y-50395238D01*
X84129524Y-50490476D01*
X84034286Y-50538095D01*
X91273334Y-51252381D02*
X90940000Y-50776190D01*
X90701905Y-51252381D02*
X90701905Y-50252381D01*
X91082858Y-50252381D01*
X91178096Y-50300000D01*
X91225715Y-50347619D01*
X91273334Y-50442857D01*
X91273334Y-50585714D01*
X91225715Y-50680952D01*
X91178096Y-50728571D01*
X91082858Y-50776190D01*
X90701905Y-50776190D01*
X91654286Y-50347619D02*
X91701905Y-50300000D01*
X91797143Y-50252381D01*
X92035239Y-50252381D01*
X92130477Y-50300000D01*
X92178096Y-50347619D01*
X92225715Y-50442857D01*
X92225715Y-50538095D01*
X92178096Y-50680952D01*
X91606667Y-51252381D01*
X92225715Y-51252381D01*
X96353334Y-51252381D02*
X96020000Y-50776190D01*
X95781905Y-51252381D02*
X95781905Y-50252381D01*
X96162858Y-50252381D01*
X96258096Y-50300000D01*
X96305715Y-50347619D01*
X96353334Y-50442857D01*
X96353334Y-50585714D01*
X96305715Y-50680952D01*
X96258096Y-50728571D01*
X96162858Y-50776190D01*
X95781905Y-50776190D01*
X96686667Y-50252381D02*
X97305715Y-50252381D01*
X96972381Y-50633333D01*
X97115239Y-50633333D01*
X97210477Y-50680952D01*
X97258096Y-50728571D01*
X97305715Y-50823810D01*
X97305715Y-51061905D01*
X97258096Y-51157143D01*
X97210477Y-51204762D01*
X97115239Y-51252381D01*
X96829524Y-51252381D01*
X96734286Y-51204762D01*
X96686667Y-51157143D01*
X78573334Y-51252381D02*
X78240000Y-50776190D01*
X78001905Y-51252381D02*
X78001905Y-50252381D01*
X78382858Y-50252381D01*
X78478096Y-50300000D01*
X78525715Y-50347619D01*
X78573334Y-50442857D01*
X78573334Y-50585714D01*
X78525715Y-50680952D01*
X78478096Y-50728571D01*
X78382858Y-50776190D01*
X78001905Y-50776190D01*
X79430477Y-50585714D02*
X79430477Y-51252381D01*
X79192381Y-50204762D02*
X78954286Y-50919048D01*
X79573334Y-50919048D01*
M02*
