G04 #@! TF.FileFunction,Copper,L2,Bot,Signal*
%FSLAX46Y46*%
G04 Gerber Fmt 4.6, Leading zero omitted, Abs format (unit mm)*
G04 Created by KiCad (PCBNEW 4.0.6) date 06/11/17 17:15:35*
%MOMM*%
%LPD*%
G01*
G04 APERTURE LIST*
%ADD10C,0.100000*%
%ADD11R,2.100000X3.600000*%
%ADD12O,2.100000X3.600000*%
%ADD13R,3.960000X1.980000*%
%ADD14O,3.960000X1.980000*%
%ADD15C,1.600000*%
%ADD16O,1.500000X0.900000*%
%ADD17R,1.500000X0.900000*%
%ADD18C,1.400000*%
%ADD19O,1.400000X1.400000*%
%ADD20C,0.254000*%
G04 APERTURE END LIST*
D10*
D11*
X83820000Y-63500000D03*
D12*
X91440000Y-63500000D03*
D13*
X116840000Y-53340000D03*
D14*
X116840000Y-58340000D03*
D15*
X60960000Y-44450000D03*
X65960000Y-44450000D03*
X71120000Y-53340000D03*
X71120000Y-58340000D03*
X105410000Y-53420000D03*
X105410000Y-58420000D03*
D13*
X60960000Y-53340000D03*
D14*
X60960000Y-58340000D03*
D16*
X73660000Y-44450000D03*
X73660000Y-45720000D03*
D17*
X73660000Y-43180000D03*
D18*
X83820000Y-58420000D03*
D19*
X83820000Y-53340000D03*
D18*
X91440000Y-53340000D03*
D19*
X91440000Y-58420000D03*
D18*
X96520000Y-58420000D03*
D19*
X96520000Y-53340000D03*
D18*
X78740000Y-53340000D03*
D19*
X78740000Y-58420000D03*
D20*
G36*
X116628206Y-39041687D02*
X118867735Y-39717840D01*
X120933283Y-40816112D01*
X122746165Y-42294663D01*
X124237340Y-44097185D01*
X125349999Y-46155003D01*
X126041772Y-48389759D01*
X126289820Y-50749782D01*
X126290000Y-50801327D01*
X126290000Y-63465280D01*
X126058313Y-65828206D01*
X125382160Y-68067735D01*
X124283890Y-70133280D01*
X122805339Y-71946162D01*
X121002822Y-73437336D01*
X118944993Y-74550001D01*
X116710240Y-75241772D01*
X114350218Y-75489820D01*
X114298674Y-75490000D01*
X63534720Y-75490000D01*
X61171794Y-75258313D01*
X58932265Y-74582160D01*
X56866720Y-73483890D01*
X55053838Y-72005339D01*
X53562664Y-70202822D01*
X52449999Y-68144993D01*
X51758228Y-65910240D01*
X51510180Y-63550218D01*
X51510000Y-63498674D01*
X51510000Y-61700000D01*
X82131928Y-61700000D01*
X82131928Y-65300000D01*
X82139992Y-65401121D01*
X82193106Y-65572634D01*
X82291900Y-65722559D01*
X82428550Y-65839025D01*
X82592237Y-65912810D01*
X82770000Y-65938072D01*
X84870000Y-65938072D01*
X84971121Y-65930008D01*
X85142634Y-65876894D01*
X85292559Y-65778100D01*
X85409025Y-65641450D01*
X85482810Y-65477763D01*
X85508072Y-65300000D01*
X85508072Y-63627000D01*
X89755000Y-63627000D01*
X89755000Y-64377000D01*
X89812153Y-64703287D01*
X89931864Y-65012154D01*
X90109531Y-65291732D01*
X90338327Y-65531277D01*
X90609460Y-65721583D01*
X90912510Y-65855337D01*
X91051721Y-65889654D01*
X91313000Y-65770957D01*
X91313000Y-63627000D01*
X91567000Y-63627000D01*
X91567000Y-65770957D01*
X91828279Y-65889654D01*
X91967490Y-65855337D01*
X92270540Y-65721583D01*
X92541673Y-65531277D01*
X92770469Y-65291732D01*
X92948136Y-65012154D01*
X93067847Y-64703287D01*
X93125000Y-64377000D01*
X93125000Y-63627000D01*
X91567000Y-63627000D01*
X91313000Y-63627000D01*
X89755000Y-63627000D01*
X85508072Y-63627000D01*
X85508072Y-62623000D01*
X89755000Y-62623000D01*
X89755000Y-63373000D01*
X91313000Y-63373000D01*
X91313000Y-61229043D01*
X91567000Y-61229043D01*
X91567000Y-63373000D01*
X93125000Y-63373000D01*
X93125000Y-62623000D01*
X93067847Y-62296713D01*
X92948136Y-61987846D01*
X92770469Y-61708268D01*
X92541673Y-61468723D01*
X92270540Y-61278417D01*
X91967490Y-61144663D01*
X91828279Y-61110346D01*
X91567000Y-61229043D01*
X91313000Y-61229043D01*
X91051721Y-61110346D01*
X90912510Y-61144663D01*
X90609460Y-61278417D01*
X90338327Y-61468723D01*
X90109531Y-61708268D01*
X89931864Y-61987846D01*
X89812153Y-62296713D01*
X89755000Y-62623000D01*
X85508072Y-62623000D01*
X85508072Y-61700000D01*
X85500008Y-61598879D01*
X85446894Y-61427366D01*
X85348100Y-61277441D01*
X85211450Y-61160975D01*
X85047763Y-61087190D01*
X84870000Y-61061928D01*
X82770000Y-61061928D01*
X82668879Y-61069992D01*
X82497366Y-61123106D01*
X82347441Y-61221900D01*
X82230975Y-61358550D01*
X82157190Y-61522237D01*
X82131928Y-61700000D01*
X51510000Y-61700000D01*
X51510000Y-58718865D01*
X58389782Y-58718865D01*
X58420095Y-58844528D01*
X58548304Y-59137205D01*
X58731148Y-59399246D01*
X58961601Y-59620581D01*
X59230806Y-59792704D01*
X59528418Y-59909000D01*
X59843000Y-59965000D01*
X60833000Y-59965000D01*
X60833000Y-58467000D01*
X61087000Y-58467000D01*
X61087000Y-59965000D01*
X62077000Y-59965000D01*
X62391582Y-59909000D01*
X62689194Y-59792704D01*
X62958399Y-59620581D01*
X63188852Y-59399246D01*
X63235284Y-59332702D01*
X70306903Y-59332702D01*
X70378486Y-59576671D01*
X70633996Y-59697571D01*
X70908184Y-59766300D01*
X71190512Y-59780217D01*
X71470130Y-59738787D01*
X71736292Y-59643603D01*
X71861514Y-59576671D01*
X71933097Y-59332702D01*
X71120000Y-58519605D01*
X70306903Y-59332702D01*
X63235284Y-59332702D01*
X63371696Y-59137205D01*
X63499905Y-58844528D01*
X63530218Y-58718865D01*
X63410740Y-58467000D01*
X61087000Y-58467000D01*
X60833000Y-58467000D01*
X58509260Y-58467000D01*
X58389782Y-58718865D01*
X51510000Y-58718865D01*
X51510000Y-58410512D01*
X69679783Y-58410512D01*
X69721213Y-58690130D01*
X69816397Y-58956292D01*
X69883329Y-59081514D01*
X70127298Y-59153097D01*
X70940395Y-58340000D01*
X71299605Y-58340000D01*
X72112702Y-59153097D01*
X72356671Y-59081514D01*
X72477571Y-58826004D01*
X72495787Y-58753330D01*
X77447278Y-58753330D01*
X77537147Y-58999123D01*
X77673241Y-59222660D01*
X77850330Y-59415351D01*
X78061608Y-59569792D01*
X78298956Y-59680047D01*
X78406671Y-59712716D01*
X78613000Y-59589374D01*
X78613000Y-58547000D01*
X78867000Y-58547000D01*
X78867000Y-59589374D01*
X79073329Y-59712716D01*
X79181044Y-59680047D01*
X79418392Y-59569792D01*
X79629670Y-59415351D01*
X79806759Y-59222660D01*
X79942853Y-58999123D01*
X80032722Y-58753330D01*
X79910201Y-58547000D01*
X78867000Y-58547000D01*
X78613000Y-58547000D01*
X77569799Y-58547000D01*
X77447278Y-58753330D01*
X72495787Y-58753330D01*
X72546300Y-58551816D01*
X72547264Y-58532250D01*
X82483246Y-58532250D01*
X82530507Y-58789756D01*
X82626884Y-59033178D01*
X82768707Y-59253244D01*
X82950574Y-59441572D01*
X83165556Y-59590989D01*
X83405466Y-59695803D01*
X83661166Y-59752023D01*
X83922915Y-59757505D01*
X84180745Y-59712043D01*
X84424834Y-59617367D01*
X84645885Y-59477084D01*
X84835478Y-59296537D01*
X84986392Y-59082603D01*
X85092878Y-58843430D01*
X85113348Y-58753330D01*
X90147278Y-58753330D01*
X90237147Y-58999123D01*
X90373241Y-59222660D01*
X90550330Y-59415351D01*
X90761608Y-59569792D01*
X90998956Y-59680047D01*
X91106671Y-59712716D01*
X91313000Y-59589374D01*
X91313000Y-58547000D01*
X91567000Y-58547000D01*
X91567000Y-59589374D01*
X91773329Y-59712716D01*
X91881044Y-59680047D01*
X92118392Y-59569792D01*
X92329670Y-59415351D01*
X92506759Y-59222660D01*
X92642853Y-58999123D01*
X92732722Y-58753330D01*
X92610201Y-58547000D01*
X91567000Y-58547000D01*
X91313000Y-58547000D01*
X90269799Y-58547000D01*
X90147278Y-58753330D01*
X85113348Y-58753330D01*
X85150881Y-58588129D01*
X85151661Y-58532250D01*
X95183246Y-58532250D01*
X95230507Y-58789756D01*
X95326884Y-59033178D01*
X95468707Y-59253244D01*
X95650574Y-59441572D01*
X95865556Y-59590989D01*
X96105466Y-59695803D01*
X96361166Y-59752023D01*
X96622915Y-59757505D01*
X96880745Y-59712043D01*
X97124834Y-59617367D01*
X97345885Y-59477084D01*
X97535478Y-59296537D01*
X97686392Y-59082603D01*
X97792878Y-58843430D01*
X97850881Y-58588129D01*
X97851543Y-58540659D01*
X103973114Y-58540659D01*
X104023915Y-58817453D01*
X104127512Y-59079109D01*
X104279959Y-59315660D01*
X104475448Y-59518095D01*
X104706534Y-59678704D01*
X104964415Y-59791369D01*
X105239268Y-59851800D01*
X105520624Y-59857693D01*
X105797767Y-59808826D01*
X106060140Y-59707058D01*
X106297749Y-59556267D01*
X106501544Y-59362195D01*
X106663762Y-59132236D01*
X106778225Y-58875148D01*
X106813731Y-58718865D01*
X114269782Y-58718865D01*
X114300095Y-58844528D01*
X114428304Y-59137205D01*
X114611148Y-59399246D01*
X114841601Y-59620581D01*
X115110806Y-59792704D01*
X115408418Y-59909000D01*
X115723000Y-59965000D01*
X116713000Y-59965000D01*
X116713000Y-58467000D01*
X116967000Y-58467000D01*
X116967000Y-59965000D01*
X117957000Y-59965000D01*
X118271582Y-59909000D01*
X118569194Y-59792704D01*
X118838399Y-59620581D01*
X119068852Y-59399246D01*
X119251696Y-59137205D01*
X119379905Y-58844528D01*
X119410218Y-58718865D01*
X119290740Y-58467000D01*
X116967000Y-58467000D01*
X116713000Y-58467000D01*
X114389260Y-58467000D01*
X114269782Y-58718865D01*
X106813731Y-58718865D01*
X106840573Y-58600723D01*
X106845061Y-58279291D01*
X106790400Y-58003233D01*
X106773049Y-57961135D01*
X114269782Y-57961135D01*
X114389260Y-58213000D01*
X116713000Y-58213000D01*
X116713000Y-56715000D01*
X116967000Y-56715000D01*
X116967000Y-58213000D01*
X119290740Y-58213000D01*
X119410218Y-57961135D01*
X119379905Y-57835472D01*
X119251696Y-57542795D01*
X119068852Y-57280754D01*
X118838399Y-57059419D01*
X118569194Y-56887296D01*
X118271582Y-56771000D01*
X117957000Y-56715000D01*
X116967000Y-56715000D01*
X116713000Y-56715000D01*
X115723000Y-56715000D01*
X115408418Y-56771000D01*
X115110806Y-56887296D01*
X114841601Y-57059419D01*
X114611148Y-57280754D01*
X114428304Y-57542795D01*
X114300095Y-57835472D01*
X114269782Y-57961135D01*
X106773049Y-57961135D01*
X106683160Y-57743049D01*
X106527426Y-57508650D01*
X106329129Y-57308964D01*
X106095823Y-57151597D01*
X105836394Y-57042543D01*
X105560724Y-56985956D01*
X105279313Y-56983991D01*
X105002880Y-57036724D01*
X104741954Y-57142145D01*
X104506473Y-57296239D01*
X104305408Y-57493137D01*
X104146416Y-57725339D01*
X104035553Y-57984000D01*
X103977043Y-58259268D01*
X103973114Y-58540659D01*
X97851543Y-58540659D01*
X97855057Y-58289097D01*
X97804205Y-58032276D01*
X97704438Y-57790223D01*
X97559556Y-57572159D01*
X97375078Y-57386388D01*
X97158030Y-57239988D01*
X96916680Y-57138533D01*
X96660221Y-57085890D01*
X96398420Y-57084062D01*
X96141251Y-57133120D01*
X95898507Y-57231194D01*
X95679437Y-57374550D01*
X95492383Y-57557727D01*
X95344471Y-57773747D01*
X95241334Y-58014383D01*
X95186901Y-58270469D01*
X95183246Y-58532250D01*
X85151661Y-58532250D01*
X85155057Y-58289097D01*
X85114976Y-58086670D01*
X90147278Y-58086670D01*
X90269799Y-58293000D01*
X91313000Y-58293000D01*
X91313000Y-57250626D01*
X91567000Y-57250626D01*
X91567000Y-58293000D01*
X92610201Y-58293000D01*
X92732722Y-58086670D01*
X92642853Y-57840877D01*
X92506759Y-57617340D01*
X92329670Y-57424649D01*
X92118392Y-57270208D01*
X91881044Y-57159953D01*
X91773329Y-57127284D01*
X91567000Y-57250626D01*
X91313000Y-57250626D01*
X91106671Y-57127284D01*
X90998956Y-57159953D01*
X90761608Y-57270208D01*
X90550330Y-57424649D01*
X90373241Y-57617340D01*
X90237147Y-57840877D01*
X90147278Y-58086670D01*
X85114976Y-58086670D01*
X85104205Y-58032276D01*
X85004438Y-57790223D01*
X84859556Y-57572159D01*
X84675078Y-57386388D01*
X84458030Y-57239988D01*
X84216680Y-57138533D01*
X83960221Y-57085890D01*
X83698420Y-57084062D01*
X83441251Y-57133120D01*
X83198507Y-57231194D01*
X82979437Y-57374550D01*
X82792383Y-57557727D01*
X82644471Y-57773747D01*
X82541334Y-58014383D01*
X82486901Y-58270469D01*
X82483246Y-58532250D01*
X72547264Y-58532250D01*
X72560217Y-58269488D01*
X72533130Y-58086670D01*
X77447278Y-58086670D01*
X77569799Y-58293000D01*
X78613000Y-58293000D01*
X78613000Y-57250626D01*
X78867000Y-57250626D01*
X78867000Y-58293000D01*
X79910201Y-58293000D01*
X80032722Y-58086670D01*
X79942853Y-57840877D01*
X79806759Y-57617340D01*
X79629670Y-57424649D01*
X79418392Y-57270208D01*
X79181044Y-57159953D01*
X79073329Y-57127284D01*
X78867000Y-57250626D01*
X78613000Y-57250626D01*
X78406671Y-57127284D01*
X78298956Y-57159953D01*
X78061608Y-57270208D01*
X77850330Y-57424649D01*
X77673241Y-57617340D01*
X77537147Y-57840877D01*
X77447278Y-58086670D01*
X72533130Y-58086670D01*
X72518787Y-57989870D01*
X72423603Y-57723708D01*
X72356671Y-57598486D01*
X72112702Y-57526903D01*
X71299605Y-58340000D01*
X70940395Y-58340000D01*
X70127298Y-57526903D01*
X69883329Y-57598486D01*
X69762429Y-57853996D01*
X69693700Y-58128184D01*
X69679783Y-58410512D01*
X51510000Y-58410512D01*
X51510000Y-57961135D01*
X58389782Y-57961135D01*
X58509260Y-58213000D01*
X60833000Y-58213000D01*
X60833000Y-56715000D01*
X61087000Y-56715000D01*
X61087000Y-58213000D01*
X63410740Y-58213000D01*
X63530218Y-57961135D01*
X63499905Y-57835472D01*
X63371696Y-57542795D01*
X63235285Y-57347298D01*
X70306903Y-57347298D01*
X71120000Y-58160395D01*
X71933097Y-57347298D01*
X71861514Y-57103329D01*
X71606004Y-56982429D01*
X71331816Y-56913700D01*
X71049488Y-56899783D01*
X70769870Y-56941213D01*
X70503708Y-57036397D01*
X70378486Y-57103329D01*
X70306903Y-57347298D01*
X63235285Y-57347298D01*
X63188852Y-57280754D01*
X62958399Y-57059419D01*
X62689194Y-56887296D01*
X62391582Y-56771000D01*
X62077000Y-56715000D01*
X61087000Y-56715000D01*
X60833000Y-56715000D01*
X59843000Y-56715000D01*
X59528418Y-56771000D01*
X59230806Y-56887296D01*
X58961601Y-57059419D01*
X58731148Y-57280754D01*
X58548304Y-57542795D01*
X58420095Y-57835472D01*
X58389782Y-57961135D01*
X51510000Y-57961135D01*
X51510000Y-52350000D01*
X58341928Y-52350000D01*
X58341928Y-54330000D01*
X58349992Y-54431121D01*
X58403106Y-54602634D01*
X58501900Y-54752559D01*
X58638550Y-54869025D01*
X58802237Y-54942810D01*
X58980000Y-54968072D01*
X62940000Y-54968072D01*
X63041121Y-54960008D01*
X63212634Y-54906894D01*
X63362559Y-54808100D01*
X63479025Y-54671450D01*
X63552810Y-54507763D01*
X63578072Y-54330000D01*
X63578072Y-53460659D01*
X69683114Y-53460659D01*
X69733915Y-53737453D01*
X69837512Y-53999109D01*
X69989959Y-54235660D01*
X70185448Y-54438095D01*
X70416534Y-54598704D01*
X70674415Y-54711369D01*
X70949268Y-54771800D01*
X71230624Y-54777693D01*
X71507767Y-54728826D01*
X71770140Y-54627058D01*
X72007749Y-54476267D01*
X72211544Y-54282195D01*
X72373762Y-54052236D01*
X72488225Y-53795148D01*
X72550573Y-53520723D01*
X72551529Y-53452250D01*
X77403246Y-53452250D01*
X77450507Y-53709756D01*
X77546884Y-53953178D01*
X77688707Y-54173244D01*
X77870574Y-54361572D01*
X78085556Y-54510989D01*
X78325466Y-54615803D01*
X78581166Y-54672023D01*
X78842915Y-54677505D01*
X79100745Y-54632043D01*
X79344834Y-54537367D01*
X79565885Y-54397084D01*
X79755478Y-54216537D01*
X79906392Y-54002603D01*
X80012878Y-53763430D01*
X80070881Y-53508129D01*
X80073319Y-53333541D01*
X82485000Y-53333541D01*
X82485000Y-53346459D01*
X82510425Y-53605762D01*
X82585731Y-53855188D01*
X82708050Y-54085237D01*
X82872723Y-54287146D01*
X83073477Y-54453224D01*
X83302667Y-54577146D01*
X83551561Y-54654192D01*
X83810680Y-54681426D01*
X84070154Y-54657812D01*
X84320100Y-54584249D01*
X84550997Y-54463539D01*
X84754051Y-54300280D01*
X84921527Y-54100690D01*
X85047046Y-53872371D01*
X85125827Y-53624021D01*
X85145094Y-53452250D01*
X90103246Y-53452250D01*
X90150507Y-53709756D01*
X90246884Y-53953178D01*
X90388707Y-54173244D01*
X90570574Y-54361572D01*
X90785556Y-54510989D01*
X91025466Y-54615803D01*
X91281166Y-54672023D01*
X91542915Y-54677505D01*
X91800745Y-54632043D01*
X92044834Y-54537367D01*
X92265885Y-54397084D01*
X92455478Y-54216537D01*
X92606392Y-54002603D01*
X92712878Y-53763430D01*
X92770881Y-53508129D01*
X92773319Y-53333541D01*
X95185000Y-53333541D01*
X95185000Y-53346459D01*
X95210425Y-53605762D01*
X95285731Y-53855188D01*
X95408050Y-54085237D01*
X95572723Y-54287146D01*
X95773477Y-54453224D01*
X96002667Y-54577146D01*
X96251561Y-54654192D01*
X96510680Y-54681426D01*
X96770154Y-54657812D01*
X97020100Y-54584249D01*
X97250997Y-54463539D01*
X97454051Y-54300280D01*
X97621527Y-54100690D01*
X97747046Y-53872371D01*
X97825827Y-53624021D01*
X97835177Y-53540659D01*
X103973114Y-53540659D01*
X104023915Y-53817453D01*
X104127512Y-54079109D01*
X104279959Y-54315660D01*
X104475448Y-54518095D01*
X104706534Y-54678704D01*
X104964415Y-54791369D01*
X105239268Y-54851800D01*
X105520624Y-54857693D01*
X105797767Y-54808826D01*
X106060140Y-54707058D01*
X106297749Y-54556267D01*
X106501544Y-54362195D01*
X106663762Y-54132236D01*
X106778225Y-53875148D01*
X106840573Y-53600723D01*
X106845061Y-53279291D01*
X106790400Y-53003233D01*
X106683160Y-52743049D01*
X106527426Y-52508650D01*
X106369880Y-52350000D01*
X114221928Y-52350000D01*
X114221928Y-54330000D01*
X114229992Y-54431121D01*
X114283106Y-54602634D01*
X114381900Y-54752559D01*
X114518550Y-54869025D01*
X114682237Y-54942810D01*
X114860000Y-54968072D01*
X118820000Y-54968072D01*
X118921121Y-54960008D01*
X119092634Y-54906894D01*
X119242559Y-54808100D01*
X119359025Y-54671450D01*
X119432810Y-54507763D01*
X119458072Y-54330000D01*
X119458072Y-52350000D01*
X119450008Y-52248879D01*
X119396894Y-52077366D01*
X119298100Y-51927441D01*
X119161450Y-51810975D01*
X118997763Y-51737190D01*
X118820000Y-51711928D01*
X114860000Y-51711928D01*
X114758879Y-51719992D01*
X114587366Y-51773106D01*
X114437441Y-51871900D01*
X114320975Y-52008550D01*
X114247190Y-52172237D01*
X114221928Y-52350000D01*
X106369880Y-52350000D01*
X106329129Y-52308964D01*
X106095823Y-52151597D01*
X105836394Y-52042543D01*
X105560724Y-51985956D01*
X105279313Y-51983991D01*
X105002880Y-52036724D01*
X104741954Y-52142145D01*
X104506473Y-52296239D01*
X104305408Y-52493137D01*
X104146416Y-52725339D01*
X104035553Y-52984000D01*
X103977043Y-53259268D01*
X103973114Y-53540659D01*
X97835177Y-53540659D01*
X97854870Y-53365099D01*
X97855000Y-53346459D01*
X97855000Y-53333541D01*
X97829575Y-53074238D01*
X97754269Y-52824812D01*
X97631950Y-52594763D01*
X97467277Y-52392854D01*
X97266523Y-52226776D01*
X97037333Y-52102854D01*
X96788439Y-52025808D01*
X96529320Y-51998574D01*
X96269846Y-52022188D01*
X96019900Y-52095751D01*
X95789003Y-52216461D01*
X95585949Y-52379720D01*
X95418473Y-52579310D01*
X95292954Y-52807629D01*
X95214173Y-53055979D01*
X95185130Y-53314901D01*
X95185000Y-53333541D01*
X92773319Y-53333541D01*
X92775057Y-53209097D01*
X92724205Y-52952276D01*
X92624438Y-52710223D01*
X92479556Y-52492159D01*
X92295078Y-52306388D01*
X92078030Y-52159988D01*
X91836680Y-52058533D01*
X91580221Y-52005890D01*
X91318420Y-52004062D01*
X91061251Y-52053120D01*
X90818507Y-52151194D01*
X90599437Y-52294550D01*
X90412383Y-52477727D01*
X90264471Y-52693747D01*
X90161334Y-52934383D01*
X90106901Y-53190469D01*
X90103246Y-53452250D01*
X85145094Y-53452250D01*
X85154870Y-53365099D01*
X85155000Y-53346459D01*
X85155000Y-53333541D01*
X85129575Y-53074238D01*
X85054269Y-52824812D01*
X84931950Y-52594763D01*
X84767277Y-52392854D01*
X84566523Y-52226776D01*
X84337333Y-52102854D01*
X84088439Y-52025808D01*
X83829320Y-51998574D01*
X83569846Y-52022188D01*
X83319900Y-52095751D01*
X83089003Y-52216461D01*
X82885949Y-52379720D01*
X82718473Y-52579310D01*
X82592954Y-52807629D01*
X82514173Y-53055979D01*
X82485130Y-53314901D01*
X82485000Y-53333541D01*
X80073319Y-53333541D01*
X80075057Y-53209097D01*
X80024205Y-52952276D01*
X79924438Y-52710223D01*
X79779556Y-52492159D01*
X79595078Y-52306388D01*
X79378030Y-52159988D01*
X79136680Y-52058533D01*
X78880221Y-52005890D01*
X78618420Y-52004062D01*
X78361251Y-52053120D01*
X78118507Y-52151194D01*
X77899437Y-52294550D01*
X77712383Y-52477727D01*
X77564471Y-52693747D01*
X77461334Y-52934383D01*
X77406901Y-53190469D01*
X77403246Y-53452250D01*
X72551529Y-53452250D01*
X72555061Y-53199291D01*
X72500400Y-52923233D01*
X72393160Y-52663049D01*
X72237426Y-52428650D01*
X72039129Y-52228964D01*
X71805823Y-52071597D01*
X71546394Y-51962543D01*
X71270724Y-51905956D01*
X70989313Y-51903991D01*
X70712880Y-51956724D01*
X70451954Y-52062145D01*
X70216473Y-52216239D01*
X70015408Y-52413137D01*
X69856416Y-52645339D01*
X69745553Y-52904000D01*
X69687043Y-53179268D01*
X69683114Y-53460659D01*
X63578072Y-53460659D01*
X63578072Y-52350000D01*
X63570008Y-52248879D01*
X63516894Y-52077366D01*
X63418100Y-51927441D01*
X63281450Y-51810975D01*
X63117763Y-51737190D01*
X62940000Y-51711928D01*
X58980000Y-51711928D01*
X58878879Y-51719992D01*
X58707366Y-51773106D01*
X58557441Y-51871900D01*
X58440975Y-52008550D01*
X58367190Y-52172237D01*
X58341928Y-52350000D01*
X51510000Y-52350000D01*
X51510000Y-50834720D01*
X51741687Y-48471794D01*
X52417840Y-46232265D01*
X53301332Y-44570659D01*
X59523114Y-44570659D01*
X59573915Y-44847453D01*
X59677512Y-45109109D01*
X59829959Y-45345660D01*
X60025448Y-45548095D01*
X60256534Y-45708704D01*
X60514415Y-45821369D01*
X60789268Y-45881800D01*
X61070624Y-45887693D01*
X61347767Y-45838826D01*
X61610140Y-45737058D01*
X61847749Y-45586267D01*
X62051544Y-45392195D01*
X62213762Y-45162236D01*
X62328225Y-44905148D01*
X62390573Y-44630723D01*
X62391411Y-44570659D01*
X64523114Y-44570659D01*
X64573915Y-44847453D01*
X64677512Y-45109109D01*
X64829959Y-45345660D01*
X65025448Y-45548095D01*
X65256534Y-45708704D01*
X65514415Y-45821369D01*
X65789268Y-45881800D01*
X66070624Y-45887693D01*
X66347767Y-45838826D01*
X66610140Y-45737058D01*
X66847749Y-45586267D01*
X67051544Y-45392195D01*
X67213762Y-45162236D01*
X67328225Y-44905148D01*
X67390573Y-44630723D01*
X67393202Y-44442425D01*
X72268325Y-44442425D01*
X72287517Y-44653309D01*
X72347305Y-44856448D01*
X72445410Y-45044106D01*
X72477745Y-45084323D01*
X72453793Y-45113276D01*
X72353077Y-45299546D01*
X72290460Y-45501830D01*
X72268325Y-45712425D01*
X72287517Y-45923309D01*
X72347305Y-46126448D01*
X72445410Y-46314106D01*
X72578096Y-46479135D01*
X72740310Y-46615248D01*
X72925872Y-46717262D01*
X73127715Y-46781290D01*
X73338150Y-46804894D01*
X73353299Y-46805000D01*
X73966701Y-46805000D01*
X74177445Y-46784336D01*
X74380162Y-46723132D01*
X74567131Y-46623720D01*
X74731229Y-46489884D01*
X74866207Y-46326724D01*
X74966923Y-46140454D01*
X75029540Y-45938170D01*
X75051675Y-45727575D01*
X75032483Y-45516691D01*
X74972695Y-45313552D01*
X74874590Y-45125894D01*
X74842255Y-45085677D01*
X74866207Y-45056724D01*
X74966923Y-44870454D01*
X75029540Y-44668170D01*
X75051675Y-44457575D01*
X75032483Y-44246691D01*
X74972695Y-44043552D01*
X74940333Y-43981649D01*
X74949025Y-43971450D01*
X75022810Y-43807763D01*
X75048072Y-43630000D01*
X75048072Y-42730000D01*
X75040008Y-42628879D01*
X74986894Y-42457366D01*
X74888100Y-42307441D01*
X74751450Y-42190975D01*
X74587763Y-42117190D01*
X74410000Y-42091928D01*
X72910000Y-42091928D01*
X72808879Y-42099992D01*
X72637366Y-42153106D01*
X72487441Y-42251900D01*
X72370975Y-42388550D01*
X72297190Y-42552237D01*
X72271928Y-42730000D01*
X72271928Y-43630000D01*
X72279992Y-43731121D01*
X72333106Y-43902634D01*
X72381769Y-43976482D01*
X72353077Y-44029546D01*
X72290460Y-44231830D01*
X72268325Y-44442425D01*
X67393202Y-44442425D01*
X67395061Y-44309291D01*
X67340400Y-44033233D01*
X67233160Y-43773049D01*
X67077426Y-43538650D01*
X66879129Y-43338964D01*
X66645823Y-43181597D01*
X66386394Y-43072543D01*
X66110724Y-43015956D01*
X65829313Y-43013991D01*
X65552880Y-43066724D01*
X65291954Y-43172145D01*
X65056473Y-43326239D01*
X64855408Y-43523137D01*
X64696416Y-43755339D01*
X64585553Y-44014000D01*
X64527043Y-44289268D01*
X64523114Y-44570659D01*
X62391411Y-44570659D01*
X62395061Y-44309291D01*
X62340400Y-44033233D01*
X62233160Y-43773049D01*
X62077426Y-43538650D01*
X61879129Y-43338964D01*
X61645823Y-43181597D01*
X61386394Y-43072543D01*
X61110724Y-43015956D01*
X60829313Y-43013991D01*
X60552880Y-43066724D01*
X60291954Y-43172145D01*
X60056473Y-43326239D01*
X59855408Y-43523137D01*
X59696416Y-43755339D01*
X59585553Y-44014000D01*
X59527043Y-44289268D01*
X59523114Y-44570659D01*
X53301332Y-44570659D01*
X53516112Y-44166717D01*
X54994663Y-42353835D01*
X56797185Y-40862660D01*
X58855003Y-39750001D01*
X61089759Y-39058228D01*
X63449782Y-38810180D01*
X63501327Y-38810000D01*
X114265280Y-38810000D01*
X116628206Y-39041687D01*
X116628206Y-39041687D01*
G37*
X116628206Y-39041687D02*
X118867735Y-39717840D01*
X120933283Y-40816112D01*
X122746165Y-42294663D01*
X124237340Y-44097185D01*
X125349999Y-46155003D01*
X126041772Y-48389759D01*
X126289820Y-50749782D01*
X126290000Y-50801327D01*
X126290000Y-63465280D01*
X126058313Y-65828206D01*
X125382160Y-68067735D01*
X124283890Y-70133280D01*
X122805339Y-71946162D01*
X121002822Y-73437336D01*
X118944993Y-74550001D01*
X116710240Y-75241772D01*
X114350218Y-75489820D01*
X114298674Y-75490000D01*
X63534720Y-75490000D01*
X61171794Y-75258313D01*
X58932265Y-74582160D01*
X56866720Y-73483890D01*
X55053838Y-72005339D01*
X53562664Y-70202822D01*
X52449999Y-68144993D01*
X51758228Y-65910240D01*
X51510180Y-63550218D01*
X51510000Y-63498674D01*
X51510000Y-61700000D01*
X82131928Y-61700000D01*
X82131928Y-65300000D01*
X82139992Y-65401121D01*
X82193106Y-65572634D01*
X82291900Y-65722559D01*
X82428550Y-65839025D01*
X82592237Y-65912810D01*
X82770000Y-65938072D01*
X84870000Y-65938072D01*
X84971121Y-65930008D01*
X85142634Y-65876894D01*
X85292559Y-65778100D01*
X85409025Y-65641450D01*
X85482810Y-65477763D01*
X85508072Y-65300000D01*
X85508072Y-63627000D01*
X89755000Y-63627000D01*
X89755000Y-64377000D01*
X89812153Y-64703287D01*
X89931864Y-65012154D01*
X90109531Y-65291732D01*
X90338327Y-65531277D01*
X90609460Y-65721583D01*
X90912510Y-65855337D01*
X91051721Y-65889654D01*
X91313000Y-65770957D01*
X91313000Y-63627000D01*
X91567000Y-63627000D01*
X91567000Y-65770957D01*
X91828279Y-65889654D01*
X91967490Y-65855337D01*
X92270540Y-65721583D01*
X92541673Y-65531277D01*
X92770469Y-65291732D01*
X92948136Y-65012154D01*
X93067847Y-64703287D01*
X93125000Y-64377000D01*
X93125000Y-63627000D01*
X91567000Y-63627000D01*
X91313000Y-63627000D01*
X89755000Y-63627000D01*
X85508072Y-63627000D01*
X85508072Y-62623000D01*
X89755000Y-62623000D01*
X89755000Y-63373000D01*
X91313000Y-63373000D01*
X91313000Y-61229043D01*
X91567000Y-61229043D01*
X91567000Y-63373000D01*
X93125000Y-63373000D01*
X93125000Y-62623000D01*
X93067847Y-62296713D01*
X92948136Y-61987846D01*
X92770469Y-61708268D01*
X92541673Y-61468723D01*
X92270540Y-61278417D01*
X91967490Y-61144663D01*
X91828279Y-61110346D01*
X91567000Y-61229043D01*
X91313000Y-61229043D01*
X91051721Y-61110346D01*
X90912510Y-61144663D01*
X90609460Y-61278417D01*
X90338327Y-61468723D01*
X90109531Y-61708268D01*
X89931864Y-61987846D01*
X89812153Y-62296713D01*
X89755000Y-62623000D01*
X85508072Y-62623000D01*
X85508072Y-61700000D01*
X85500008Y-61598879D01*
X85446894Y-61427366D01*
X85348100Y-61277441D01*
X85211450Y-61160975D01*
X85047763Y-61087190D01*
X84870000Y-61061928D01*
X82770000Y-61061928D01*
X82668879Y-61069992D01*
X82497366Y-61123106D01*
X82347441Y-61221900D01*
X82230975Y-61358550D01*
X82157190Y-61522237D01*
X82131928Y-61700000D01*
X51510000Y-61700000D01*
X51510000Y-58718865D01*
X58389782Y-58718865D01*
X58420095Y-58844528D01*
X58548304Y-59137205D01*
X58731148Y-59399246D01*
X58961601Y-59620581D01*
X59230806Y-59792704D01*
X59528418Y-59909000D01*
X59843000Y-59965000D01*
X60833000Y-59965000D01*
X60833000Y-58467000D01*
X61087000Y-58467000D01*
X61087000Y-59965000D01*
X62077000Y-59965000D01*
X62391582Y-59909000D01*
X62689194Y-59792704D01*
X62958399Y-59620581D01*
X63188852Y-59399246D01*
X63235284Y-59332702D01*
X70306903Y-59332702D01*
X70378486Y-59576671D01*
X70633996Y-59697571D01*
X70908184Y-59766300D01*
X71190512Y-59780217D01*
X71470130Y-59738787D01*
X71736292Y-59643603D01*
X71861514Y-59576671D01*
X71933097Y-59332702D01*
X71120000Y-58519605D01*
X70306903Y-59332702D01*
X63235284Y-59332702D01*
X63371696Y-59137205D01*
X63499905Y-58844528D01*
X63530218Y-58718865D01*
X63410740Y-58467000D01*
X61087000Y-58467000D01*
X60833000Y-58467000D01*
X58509260Y-58467000D01*
X58389782Y-58718865D01*
X51510000Y-58718865D01*
X51510000Y-58410512D01*
X69679783Y-58410512D01*
X69721213Y-58690130D01*
X69816397Y-58956292D01*
X69883329Y-59081514D01*
X70127298Y-59153097D01*
X70940395Y-58340000D01*
X71299605Y-58340000D01*
X72112702Y-59153097D01*
X72356671Y-59081514D01*
X72477571Y-58826004D01*
X72495787Y-58753330D01*
X77447278Y-58753330D01*
X77537147Y-58999123D01*
X77673241Y-59222660D01*
X77850330Y-59415351D01*
X78061608Y-59569792D01*
X78298956Y-59680047D01*
X78406671Y-59712716D01*
X78613000Y-59589374D01*
X78613000Y-58547000D01*
X78867000Y-58547000D01*
X78867000Y-59589374D01*
X79073329Y-59712716D01*
X79181044Y-59680047D01*
X79418392Y-59569792D01*
X79629670Y-59415351D01*
X79806759Y-59222660D01*
X79942853Y-58999123D01*
X80032722Y-58753330D01*
X79910201Y-58547000D01*
X78867000Y-58547000D01*
X78613000Y-58547000D01*
X77569799Y-58547000D01*
X77447278Y-58753330D01*
X72495787Y-58753330D01*
X72546300Y-58551816D01*
X72547264Y-58532250D01*
X82483246Y-58532250D01*
X82530507Y-58789756D01*
X82626884Y-59033178D01*
X82768707Y-59253244D01*
X82950574Y-59441572D01*
X83165556Y-59590989D01*
X83405466Y-59695803D01*
X83661166Y-59752023D01*
X83922915Y-59757505D01*
X84180745Y-59712043D01*
X84424834Y-59617367D01*
X84645885Y-59477084D01*
X84835478Y-59296537D01*
X84986392Y-59082603D01*
X85092878Y-58843430D01*
X85113348Y-58753330D01*
X90147278Y-58753330D01*
X90237147Y-58999123D01*
X90373241Y-59222660D01*
X90550330Y-59415351D01*
X90761608Y-59569792D01*
X90998956Y-59680047D01*
X91106671Y-59712716D01*
X91313000Y-59589374D01*
X91313000Y-58547000D01*
X91567000Y-58547000D01*
X91567000Y-59589374D01*
X91773329Y-59712716D01*
X91881044Y-59680047D01*
X92118392Y-59569792D01*
X92329670Y-59415351D01*
X92506759Y-59222660D01*
X92642853Y-58999123D01*
X92732722Y-58753330D01*
X92610201Y-58547000D01*
X91567000Y-58547000D01*
X91313000Y-58547000D01*
X90269799Y-58547000D01*
X90147278Y-58753330D01*
X85113348Y-58753330D01*
X85150881Y-58588129D01*
X85151661Y-58532250D01*
X95183246Y-58532250D01*
X95230507Y-58789756D01*
X95326884Y-59033178D01*
X95468707Y-59253244D01*
X95650574Y-59441572D01*
X95865556Y-59590989D01*
X96105466Y-59695803D01*
X96361166Y-59752023D01*
X96622915Y-59757505D01*
X96880745Y-59712043D01*
X97124834Y-59617367D01*
X97345885Y-59477084D01*
X97535478Y-59296537D01*
X97686392Y-59082603D01*
X97792878Y-58843430D01*
X97850881Y-58588129D01*
X97851543Y-58540659D01*
X103973114Y-58540659D01*
X104023915Y-58817453D01*
X104127512Y-59079109D01*
X104279959Y-59315660D01*
X104475448Y-59518095D01*
X104706534Y-59678704D01*
X104964415Y-59791369D01*
X105239268Y-59851800D01*
X105520624Y-59857693D01*
X105797767Y-59808826D01*
X106060140Y-59707058D01*
X106297749Y-59556267D01*
X106501544Y-59362195D01*
X106663762Y-59132236D01*
X106778225Y-58875148D01*
X106813731Y-58718865D01*
X114269782Y-58718865D01*
X114300095Y-58844528D01*
X114428304Y-59137205D01*
X114611148Y-59399246D01*
X114841601Y-59620581D01*
X115110806Y-59792704D01*
X115408418Y-59909000D01*
X115723000Y-59965000D01*
X116713000Y-59965000D01*
X116713000Y-58467000D01*
X116967000Y-58467000D01*
X116967000Y-59965000D01*
X117957000Y-59965000D01*
X118271582Y-59909000D01*
X118569194Y-59792704D01*
X118838399Y-59620581D01*
X119068852Y-59399246D01*
X119251696Y-59137205D01*
X119379905Y-58844528D01*
X119410218Y-58718865D01*
X119290740Y-58467000D01*
X116967000Y-58467000D01*
X116713000Y-58467000D01*
X114389260Y-58467000D01*
X114269782Y-58718865D01*
X106813731Y-58718865D01*
X106840573Y-58600723D01*
X106845061Y-58279291D01*
X106790400Y-58003233D01*
X106773049Y-57961135D01*
X114269782Y-57961135D01*
X114389260Y-58213000D01*
X116713000Y-58213000D01*
X116713000Y-56715000D01*
X116967000Y-56715000D01*
X116967000Y-58213000D01*
X119290740Y-58213000D01*
X119410218Y-57961135D01*
X119379905Y-57835472D01*
X119251696Y-57542795D01*
X119068852Y-57280754D01*
X118838399Y-57059419D01*
X118569194Y-56887296D01*
X118271582Y-56771000D01*
X117957000Y-56715000D01*
X116967000Y-56715000D01*
X116713000Y-56715000D01*
X115723000Y-56715000D01*
X115408418Y-56771000D01*
X115110806Y-56887296D01*
X114841601Y-57059419D01*
X114611148Y-57280754D01*
X114428304Y-57542795D01*
X114300095Y-57835472D01*
X114269782Y-57961135D01*
X106773049Y-57961135D01*
X106683160Y-57743049D01*
X106527426Y-57508650D01*
X106329129Y-57308964D01*
X106095823Y-57151597D01*
X105836394Y-57042543D01*
X105560724Y-56985956D01*
X105279313Y-56983991D01*
X105002880Y-57036724D01*
X104741954Y-57142145D01*
X104506473Y-57296239D01*
X104305408Y-57493137D01*
X104146416Y-57725339D01*
X104035553Y-57984000D01*
X103977043Y-58259268D01*
X103973114Y-58540659D01*
X97851543Y-58540659D01*
X97855057Y-58289097D01*
X97804205Y-58032276D01*
X97704438Y-57790223D01*
X97559556Y-57572159D01*
X97375078Y-57386388D01*
X97158030Y-57239988D01*
X96916680Y-57138533D01*
X96660221Y-57085890D01*
X96398420Y-57084062D01*
X96141251Y-57133120D01*
X95898507Y-57231194D01*
X95679437Y-57374550D01*
X95492383Y-57557727D01*
X95344471Y-57773747D01*
X95241334Y-58014383D01*
X95186901Y-58270469D01*
X95183246Y-58532250D01*
X85151661Y-58532250D01*
X85155057Y-58289097D01*
X85114976Y-58086670D01*
X90147278Y-58086670D01*
X90269799Y-58293000D01*
X91313000Y-58293000D01*
X91313000Y-57250626D01*
X91567000Y-57250626D01*
X91567000Y-58293000D01*
X92610201Y-58293000D01*
X92732722Y-58086670D01*
X92642853Y-57840877D01*
X92506759Y-57617340D01*
X92329670Y-57424649D01*
X92118392Y-57270208D01*
X91881044Y-57159953D01*
X91773329Y-57127284D01*
X91567000Y-57250626D01*
X91313000Y-57250626D01*
X91106671Y-57127284D01*
X90998956Y-57159953D01*
X90761608Y-57270208D01*
X90550330Y-57424649D01*
X90373241Y-57617340D01*
X90237147Y-57840877D01*
X90147278Y-58086670D01*
X85114976Y-58086670D01*
X85104205Y-58032276D01*
X85004438Y-57790223D01*
X84859556Y-57572159D01*
X84675078Y-57386388D01*
X84458030Y-57239988D01*
X84216680Y-57138533D01*
X83960221Y-57085890D01*
X83698420Y-57084062D01*
X83441251Y-57133120D01*
X83198507Y-57231194D01*
X82979437Y-57374550D01*
X82792383Y-57557727D01*
X82644471Y-57773747D01*
X82541334Y-58014383D01*
X82486901Y-58270469D01*
X82483246Y-58532250D01*
X72547264Y-58532250D01*
X72560217Y-58269488D01*
X72533130Y-58086670D01*
X77447278Y-58086670D01*
X77569799Y-58293000D01*
X78613000Y-58293000D01*
X78613000Y-57250626D01*
X78867000Y-57250626D01*
X78867000Y-58293000D01*
X79910201Y-58293000D01*
X80032722Y-58086670D01*
X79942853Y-57840877D01*
X79806759Y-57617340D01*
X79629670Y-57424649D01*
X79418392Y-57270208D01*
X79181044Y-57159953D01*
X79073329Y-57127284D01*
X78867000Y-57250626D01*
X78613000Y-57250626D01*
X78406671Y-57127284D01*
X78298956Y-57159953D01*
X78061608Y-57270208D01*
X77850330Y-57424649D01*
X77673241Y-57617340D01*
X77537147Y-57840877D01*
X77447278Y-58086670D01*
X72533130Y-58086670D01*
X72518787Y-57989870D01*
X72423603Y-57723708D01*
X72356671Y-57598486D01*
X72112702Y-57526903D01*
X71299605Y-58340000D01*
X70940395Y-58340000D01*
X70127298Y-57526903D01*
X69883329Y-57598486D01*
X69762429Y-57853996D01*
X69693700Y-58128184D01*
X69679783Y-58410512D01*
X51510000Y-58410512D01*
X51510000Y-57961135D01*
X58389782Y-57961135D01*
X58509260Y-58213000D01*
X60833000Y-58213000D01*
X60833000Y-56715000D01*
X61087000Y-56715000D01*
X61087000Y-58213000D01*
X63410740Y-58213000D01*
X63530218Y-57961135D01*
X63499905Y-57835472D01*
X63371696Y-57542795D01*
X63235285Y-57347298D01*
X70306903Y-57347298D01*
X71120000Y-58160395D01*
X71933097Y-57347298D01*
X71861514Y-57103329D01*
X71606004Y-56982429D01*
X71331816Y-56913700D01*
X71049488Y-56899783D01*
X70769870Y-56941213D01*
X70503708Y-57036397D01*
X70378486Y-57103329D01*
X70306903Y-57347298D01*
X63235285Y-57347298D01*
X63188852Y-57280754D01*
X62958399Y-57059419D01*
X62689194Y-56887296D01*
X62391582Y-56771000D01*
X62077000Y-56715000D01*
X61087000Y-56715000D01*
X60833000Y-56715000D01*
X59843000Y-56715000D01*
X59528418Y-56771000D01*
X59230806Y-56887296D01*
X58961601Y-57059419D01*
X58731148Y-57280754D01*
X58548304Y-57542795D01*
X58420095Y-57835472D01*
X58389782Y-57961135D01*
X51510000Y-57961135D01*
X51510000Y-52350000D01*
X58341928Y-52350000D01*
X58341928Y-54330000D01*
X58349992Y-54431121D01*
X58403106Y-54602634D01*
X58501900Y-54752559D01*
X58638550Y-54869025D01*
X58802237Y-54942810D01*
X58980000Y-54968072D01*
X62940000Y-54968072D01*
X63041121Y-54960008D01*
X63212634Y-54906894D01*
X63362559Y-54808100D01*
X63479025Y-54671450D01*
X63552810Y-54507763D01*
X63578072Y-54330000D01*
X63578072Y-53460659D01*
X69683114Y-53460659D01*
X69733915Y-53737453D01*
X69837512Y-53999109D01*
X69989959Y-54235660D01*
X70185448Y-54438095D01*
X70416534Y-54598704D01*
X70674415Y-54711369D01*
X70949268Y-54771800D01*
X71230624Y-54777693D01*
X71507767Y-54728826D01*
X71770140Y-54627058D01*
X72007749Y-54476267D01*
X72211544Y-54282195D01*
X72373762Y-54052236D01*
X72488225Y-53795148D01*
X72550573Y-53520723D01*
X72551529Y-53452250D01*
X77403246Y-53452250D01*
X77450507Y-53709756D01*
X77546884Y-53953178D01*
X77688707Y-54173244D01*
X77870574Y-54361572D01*
X78085556Y-54510989D01*
X78325466Y-54615803D01*
X78581166Y-54672023D01*
X78842915Y-54677505D01*
X79100745Y-54632043D01*
X79344834Y-54537367D01*
X79565885Y-54397084D01*
X79755478Y-54216537D01*
X79906392Y-54002603D01*
X80012878Y-53763430D01*
X80070881Y-53508129D01*
X80073319Y-53333541D01*
X82485000Y-53333541D01*
X82485000Y-53346459D01*
X82510425Y-53605762D01*
X82585731Y-53855188D01*
X82708050Y-54085237D01*
X82872723Y-54287146D01*
X83073477Y-54453224D01*
X83302667Y-54577146D01*
X83551561Y-54654192D01*
X83810680Y-54681426D01*
X84070154Y-54657812D01*
X84320100Y-54584249D01*
X84550997Y-54463539D01*
X84754051Y-54300280D01*
X84921527Y-54100690D01*
X85047046Y-53872371D01*
X85125827Y-53624021D01*
X85145094Y-53452250D01*
X90103246Y-53452250D01*
X90150507Y-53709756D01*
X90246884Y-53953178D01*
X90388707Y-54173244D01*
X90570574Y-54361572D01*
X90785556Y-54510989D01*
X91025466Y-54615803D01*
X91281166Y-54672023D01*
X91542915Y-54677505D01*
X91800745Y-54632043D01*
X92044834Y-54537367D01*
X92265885Y-54397084D01*
X92455478Y-54216537D01*
X92606392Y-54002603D01*
X92712878Y-53763430D01*
X92770881Y-53508129D01*
X92773319Y-53333541D01*
X95185000Y-53333541D01*
X95185000Y-53346459D01*
X95210425Y-53605762D01*
X95285731Y-53855188D01*
X95408050Y-54085237D01*
X95572723Y-54287146D01*
X95773477Y-54453224D01*
X96002667Y-54577146D01*
X96251561Y-54654192D01*
X96510680Y-54681426D01*
X96770154Y-54657812D01*
X97020100Y-54584249D01*
X97250997Y-54463539D01*
X97454051Y-54300280D01*
X97621527Y-54100690D01*
X97747046Y-53872371D01*
X97825827Y-53624021D01*
X97835177Y-53540659D01*
X103973114Y-53540659D01*
X104023915Y-53817453D01*
X104127512Y-54079109D01*
X104279959Y-54315660D01*
X104475448Y-54518095D01*
X104706534Y-54678704D01*
X104964415Y-54791369D01*
X105239268Y-54851800D01*
X105520624Y-54857693D01*
X105797767Y-54808826D01*
X106060140Y-54707058D01*
X106297749Y-54556267D01*
X106501544Y-54362195D01*
X106663762Y-54132236D01*
X106778225Y-53875148D01*
X106840573Y-53600723D01*
X106845061Y-53279291D01*
X106790400Y-53003233D01*
X106683160Y-52743049D01*
X106527426Y-52508650D01*
X106369880Y-52350000D01*
X114221928Y-52350000D01*
X114221928Y-54330000D01*
X114229992Y-54431121D01*
X114283106Y-54602634D01*
X114381900Y-54752559D01*
X114518550Y-54869025D01*
X114682237Y-54942810D01*
X114860000Y-54968072D01*
X118820000Y-54968072D01*
X118921121Y-54960008D01*
X119092634Y-54906894D01*
X119242559Y-54808100D01*
X119359025Y-54671450D01*
X119432810Y-54507763D01*
X119458072Y-54330000D01*
X119458072Y-52350000D01*
X119450008Y-52248879D01*
X119396894Y-52077366D01*
X119298100Y-51927441D01*
X119161450Y-51810975D01*
X118997763Y-51737190D01*
X118820000Y-51711928D01*
X114860000Y-51711928D01*
X114758879Y-51719992D01*
X114587366Y-51773106D01*
X114437441Y-51871900D01*
X114320975Y-52008550D01*
X114247190Y-52172237D01*
X114221928Y-52350000D01*
X106369880Y-52350000D01*
X106329129Y-52308964D01*
X106095823Y-52151597D01*
X105836394Y-52042543D01*
X105560724Y-51985956D01*
X105279313Y-51983991D01*
X105002880Y-52036724D01*
X104741954Y-52142145D01*
X104506473Y-52296239D01*
X104305408Y-52493137D01*
X104146416Y-52725339D01*
X104035553Y-52984000D01*
X103977043Y-53259268D01*
X103973114Y-53540659D01*
X97835177Y-53540659D01*
X97854870Y-53365099D01*
X97855000Y-53346459D01*
X97855000Y-53333541D01*
X97829575Y-53074238D01*
X97754269Y-52824812D01*
X97631950Y-52594763D01*
X97467277Y-52392854D01*
X97266523Y-52226776D01*
X97037333Y-52102854D01*
X96788439Y-52025808D01*
X96529320Y-51998574D01*
X96269846Y-52022188D01*
X96019900Y-52095751D01*
X95789003Y-52216461D01*
X95585949Y-52379720D01*
X95418473Y-52579310D01*
X95292954Y-52807629D01*
X95214173Y-53055979D01*
X95185130Y-53314901D01*
X95185000Y-53333541D01*
X92773319Y-53333541D01*
X92775057Y-53209097D01*
X92724205Y-52952276D01*
X92624438Y-52710223D01*
X92479556Y-52492159D01*
X92295078Y-52306388D01*
X92078030Y-52159988D01*
X91836680Y-52058533D01*
X91580221Y-52005890D01*
X91318420Y-52004062D01*
X91061251Y-52053120D01*
X90818507Y-52151194D01*
X90599437Y-52294550D01*
X90412383Y-52477727D01*
X90264471Y-52693747D01*
X90161334Y-52934383D01*
X90106901Y-53190469D01*
X90103246Y-53452250D01*
X85145094Y-53452250D01*
X85154870Y-53365099D01*
X85155000Y-53346459D01*
X85155000Y-53333541D01*
X85129575Y-53074238D01*
X85054269Y-52824812D01*
X84931950Y-52594763D01*
X84767277Y-52392854D01*
X84566523Y-52226776D01*
X84337333Y-52102854D01*
X84088439Y-52025808D01*
X83829320Y-51998574D01*
X83569846Y-52022188D01*
X83319900Y-52095751D01*
X83089003Y-52216461D01*
X82885949Y-52379720D01*
X82718473Y-52579310D01*
X82592954Y-52807629D01*
X82514173Y-53055979D01*
X82485130Y-53314901D01*
X82485000Y-53333541D01*
X80073319Y-53333541D01*
X80075057Y-53209097D01*
X80024205Y-52952276D01*
X79924438Y-52710223D01*
X79779556Y-52492159D01*
X79595078Y-52306388D01*
X79378030Y-52159988D01*
X79136680Y-52058533D01*
X78880221Y-52005890D01*
X78618420Y-52004062D01*
X78361251Y-52053120D01*
X78118507Y-52151194D01*
X77899437Y-52294550D01*
X77712383Y-52477727D01*
X77564471Y-52693747D01*
X77461334Y-52934383D01*
X77406901Y-53190469D01*
X77403246Y-53452250D01*
X72551529Y-53452250D01*
X72555061Y-53199291D01*
X72500400Y-52923233D01*
X72393160Y-52663049D01*
X72237426Y-52428650D01*
X72039129Y-52228964D01*
X71805823Y-52071597D01*
X71546394Y-51962543D01*
X71270724Y-51905956D01*
X70989313Y-51903991D01*
X70712880Y-51956724D01*
X70451954Y-52062145D01*
X70216473Y-52216239D01*
X70015408Y-52413137D01*
X69856416Y-52645339D01*
X69745553Y-52904000D01*
X69687043Y-53179268D01*
X69683114Y-53460659D01*
X63578072Y-53460659D01*
X63578072Y-52350000D01*
X63570008Y-52248879D01*
X63516894Y-52077366D01*
X63418100Y-51927441D01*
X63281450Y-51810975D01*
X63117763Y-51737190D01*
X62940000Y-51711928D01*
X58980000Y-51711928D01*
X58878879Y-51719992D01*
X58707366Y-51773106D01*
X58557441Y-51871900D01*
X58440975Y-52008550D01*
X58367190Y-52172237D01*
X58341928Y-52350000D01*
X51510000Y-52350000D01*
X51510000Y-50834720D01*
X51741687Y-48471794D01*
X52417840Y-46232265D01*
X53301332Y-44570659D01*
X59523114Y-44570659D01*
X59573915Y-44847453D01*
X59677512Y-45109109D01*
X59829959Y-45345660D01*
X60025448Y-45548095D01*
X60256534Y-45708704D01*
X60514415Y-45821369D01*
X60789268Y-45881800D01*
X61070624Y-45887693D01*
X61347767Y-45838826D01*
X61610140Y-45737058D01*
X61847749Y-45586267D01*
X62051544Y-45392195D01*
X62213762Y-45162236D01*
X62328225Y-44905148D01*
X62390573Y-44630723D01*
X62391411Y-44570659D01*
X64523114Y-44570659D01*
X64573915Y-44847453D01*
X64677512Y-45109109D01*
X64829959Y-45345660D01*
X65025448Y-45548095D01*
X65256534Y-45708704D01*
X65514415Y-45821369D01*
X65789268Y-45881800D01*
X66070624Y-45887693D01*
X66347767Y-45838826D01*
X66610140Y-45737058D01*
X66847749Y-45586267D01*
X67051544Y-45392195D01*
X67213762Y-45162236D01*
X67328225Y-44905148D01*
X67390573Y-44630723D01*
X67393202Y-44442425D01*
X72268325Y-44442425D01*
X72287517Y-44653309D01*
X72347305Y-44856448D01*
X72445410Y-45044106D01*
X72477745Y-45084323D01*
X72453793Y-45113276D01*
X72353077Y-45299546D01*
X72290460Y-45501830D01*
X72268325Y-45712425D01*
X72287517Y-45923309D01*
X72347305Y-46126448D01*
X72445410Y-46314106D01*
X72578096Y-46479135D01*
X72740310Y-46615248D01*
X72925872Y-46717262D01*
X73127715Y-46781290D01*
X73338150Y-46804894D01*
X73353299Y-46805000D01*
X73966701Y-46805000D01*
X74177445Y-46784336D01*
X74380162Y-46723132D01*
X74567131Y-46623720D01*
X74731229Y-46489884D01*
X74866207Y-46326724D01*
X74966923Y-46140454D01*
X75029540Y-45938170D01*
X75051675Y-45727575D01*
X75032483Y-45516691D01*
X74972695Y-45313552D01*
X74874590Y-45125894D01*
X74842255Y-45085677D01*
X74866207Y-45056724D01*
X74966923Y-44870454D01*
X75029540Y-44668170D01*
X75051675Y-44457575D01*
X75032483Y-44246691D01*
X74972695Y-44043552D01*
X74940333Y-43981649D01*
X74949025Y-43971450D01*
X75022810Y-43807763D01*
X75048072Y-43630000D01*
X75048072Y-42730000D01*
X75040008Y-42628879D01*
X74986894Y-42457366D01*
X74888100Y-42307441D01*
X74751450Y-42190975D01*
X74587763Y-42117190D01*
X74410000Y-42091928D01*
X72910000Y-42091928D01*
X72808879Y-42099992D01*
X72637366Y-42153106D01*
X72487441Y-42251900D01*
X72370975Y-42388550D01*
X72297190Y-42552237D01*
X72271928Y-42730000D01*
X72271928Y-43630000D01*
X72279992Y-43731121D01*
X72333106Y-43902634D01*
X72381769Y-43976482D01*
X72353077Y-44029546D01*
X72290460Y-44231830D01*
X72268325Y-44442425D01*
X67393202Y-44442425D01*
X67395061Y-44309291D01*
X67340400Y-44033233D01*
X67233160Y-43773049D01*
X67077426Y-43538650D01*
X66879129Y-43338964D01*
X66645823Y-43181597D01*
X66386394Y-43072543D01*
X66110724Y-43015956D01*
X65829313Y-43013991D01*
X65552880Y-43066724D01*
X65291954Y-43172145D01*
X65056473Y-43326239D01*
X64855408Y-43523137D01*
X64696416Y-43755339D01*
X64585553Y-44014000D01*
X64527043Y-44289268D01*
X64523114Y-44570659D01*
X62391411Y-44570659D01*
X62395061Y-44309291D01*
X62340400Y-44033233D01*
X62233160Y-43773049D01*
X62077426Y-43538650D01*
X61879129Y-43338964D01*
X61645823Y-43181597D01*
X61386394Y-43072543D01*
X61110724Y-43015956D01*
X60829313Y-43013991D01*
X60552880Y-43066724D01*
X60291954Y-43172145D01*
X60056473Y-43326239D01*
X59855408Y-43523137D01*
X59696416Y-43755339D01*
X59585553Y-44014000D01*
X59527043Y-44289268D01*
X59523114Y-44570659D01*
X53301332Y-44570659D01*
X53516112Y-44166717D01*
X54994663Y-42353835D01*
X56797185Y-40862660D01*
X58855003Y-39750001D01*
X61089759Y-39058228D01*
X63449782Y-38810180D01*
X63501327Y-38810000D01*
X114265280Y-38810000D01*
X116628206Y-39041687D01*
M02*
