M48
;DRILL file {KiCad 4.0.6} date 06/11/17 17:36:35
;FORMAT={-:-/ absolute / metric / decimal}
FMAT,2
METRIC,TZ
T1C0.600
T2C0.700
T3C0.800
T4C1.320
T5C1.400
%
G90
G05
M71
T1
X73.66Y-43.18
X73.66Y-44.45
X73.66Y-45.72
T2
X78.74Y-53.34
X78.74Y-58.42
X83.82Y-53.34
X83.82Y-58.42
X91.44Y-53.34
X91.44Y-58.42
X96.52Y-53.34
X96.52Y-58.42
T3
X60.96Y-44.45
X65.96Y-44.45
X71.12Y-53.34
X71.12Y-58.34
X105.41Y-53.42
X105.41Y-58.42
T4
X60.96Y-53.34
X60.96Y-58.34
X116.84Y-53.34
X116.84Y-58.34
T5
X83.82Y-63.5
X91.44Y-63.5
T0
M30
