G04 #@! TF.FileFunction,Legend,Top*
%FSLAX46Y46*%
G04 Gerber Fmt 4.6, Leading zero omitted, Abs format (unit mm)*
G04 Created by KiCad (PCBNEW 4.0.6) date 06/17/17 08:19:30*
%MOMM*%
%LPD*%
G01*
G04 APERTURE LIST*
%ADD10C,0.100000*%
%ADD11C,0.120000*%
%ADD12C,0.150000*%
G04 APERTURE END LIST*
D10*
D11*
X69256600Y-112837600D02*
X74376600Y-112837600D01*
X69256600Y-115457600D02*
X74376600Y-115457600D01*
X69256600Y-112837600D02*
X69256600Y-113151600D01*
X69256600Y-115143600D02*
X69256600Y-115457600D01*
X74376600Y-112837600D02*
X74376600Y-113151600D01*
X74376600Y-115143600D02*
X74376600Y-115457600D01*
X99506400Y-113554200D02*
X99506400Y-118674200D01*
X96886400Y-113554200D02*
X96886400Y-118674200D01*
X99506400Y-113554200D02*
X99192400Y-113554200D01*
X97200400Y-113554200D02*
X96886400Y-113554200D01*
X99506400Y-118674200D02*
X99192400Y-118674200D01*
X97200400Y-118674200D02*
X96886400Y-118674200D01*
X104555600Y-104891200D02*
X99435600Y-104891200D01*
X104555600Y-102271200D02*
X99435600Y-102271200D01*
X104555600Y-104891200D02*
X104555600Y-104577200D01*
X104555600Y-102585200D02*
X104555600Y-102271200D01*
X99435600Y-104891200D02*
X99435600Y-104577200D01*
X99435600Y-102585200D02*
X99435600Y-102271200D01*
X87869400Y-125506800D02*
X87869400Y-120386800D01*
X90489400Y-125506800D02*
X90489400Y-120386800D01*
X87869400Y-125506800D02*
X88183400Y-125506800D01*
X90175400Y-125506800D02*
X90489400Y-125506800D01*
X87869400Y-120386800D02*
X88183400Y-120386800D01*
X90175400Y-120386800D02*
X90489400Y-120386800D01*
X126889200Y-114234600D02*
X132009200Y-114234600D01*
X126889200Y-116854600D02*
X132009200Y-116854600D01*
X126889200Y-114234600D02*
X126889200Y-114548600D01*
X126889200Y-116540600D02*
X126889200Y-116854600D01*
X132009200Y-114234600D02*
X132009200Y-114548600D01*
X132009200Y-116540600D02*
X132009200Y-116854600D01*
X119801000Y-108245600D02*
X119801000Y-113365600D01*
X117181000Y-108245600D02*
X117181000Y-113365600D01*
X119801000Y-108245600D02*
X119487000Y-108245600D01*
X117495000Y-108245600D02*
X117181000Y-108245600D01*
X119801000Y-113365600D02*
X119487000Y-113365600D01*
X117495000Y-113365600D02*
X117181000Y-113365600D01*
X131987600Y-123026800D02*
X126867600Y-123026800D01*
X131987600Y-120406800D02*
X126867600Y-120406800D01*
X131987600Y-123026800D02*
X131987600Y-122712800D01*
X131987600Y-120720800D02*
X131987600Y-120406800D01*
X126867600Y-123026800D02*
X126867600Y-122712800D01*
X126867600Y-120720800D02*
X126867600Y-120406800D01*
X56362600Y-106603800D02*
X63982600Y-106603800D01*
X56362600Y-121843800D02*
X63982600Y-121843800D01*
X57632600Y-106603800D02*
X57632600Y-121843800D01*
X63982600Y-106603800D02*
X63982600Y-121843800D01*
X56362600Y-106603800D02*
X56362600Y-121843800D01*
X109550200Y-110296000D02*
X110880200Y-110296000D01*
X110880200Y-110296000D02*
X110880200Y-107636000D01*
X110880200Y-107636000D02*
X109550200Y-107636000D01*
X109550200Y-107636000D02*
X109550200Y-110296000D01*
X108915200Y-110296000D02*
X108220200Y-110296000D01*
X108220200Y-110296000D02*
X108220200Y-108966000D01*
X157353000Y-120802400D02*
X149733000Y-120802400D01*
X157353000Y-105562400D02*
X149733000Y-105562400D01*
X156083000Y-120802400D02*
X156083000Y-105562400D01*
X149733000Y-120802400D02*
X149733000Y-105562400D01*
X157353000Y-120802400D02*
X157353000Y-105562400D01*
X84179000Y-106650400D02*
X87779000Y-106650400D01*
X84140522Y-106638878D02*
G75*
G02X85979000Y-102200400I1838478J1838478D01*
G01*
X87817478Y-106638878D02*
G75*
G03X85979000Y-102200400I-1838478J1838478D01*
G01*
X84450800Y-117751000D02*
X84450800Y-114151000D01*
X84439278Y-117789478D02*
G75*
G02X80000800Y-115951000I-1838478J1838478D01*
G01*
X84439278Y-114112522D02*
G75*
G03X80000800Y-115951000I-1838478J-1838478D01*
G01*
X126818000Y-110004000D02*
X126818000Y-106404000D01*
X126806478Y-110042478D02*
G75*
G02X122368000Y-108204000I-1838478J1838478D01*
G01*
X126806478Y-106365522D02*
G75*
G03X122368000Y-108204000I-1838478J-1838478D01*
G01*
X108235200Y-114448800D02*
X104515200Y-114448800D01*
X108235200Y-112728800D02*
X104515200Y-112728800D01*
X87051600Y-111883400D02*
X83331600Y-111883400D01*
X87051600Y-110163400D02*
X83331600Y-110163400D01*
X73640400Y-121281400D02*
X69920400Y-121281400D01*
X73640400Y-119561400D02*
X69920400Y-119561400D01*
X91900800Y-107397000D02*
X91900800Y-103677000D01*
X93620800Y-107397000D02*
X93620800Y-103677000D01*
X82604400Y-124745200D02*
X82604400Y-121025200D01*
X84324400Y-124745200D02*
X84324400Y-121025200D01*
X129635800Y-107445600D02*
X133355800Y-107445600D01*
X129635800Y-109165600D02*
X133355800Y-109165600D01*
X138195600Y-107471000D02*
X141915600Y-107471000D01*
X138195600Y-109191000D02*
X141915600Y-109191000D01*
X93821800Y-124692200D02*
X97541800Y-124692200D01*
X93821800Y-126412200D02*
X97541800Y-126412200D01*
X112313000Y-102264000D02*
X116033000Y-102264000D01*
X112313000Y-103984000D02*
X116033000Y-103984000D01*
X138195600Y-112678000D02*
X141915600Y-112678000D01*
X138195600Y-114398000D02*
X141915600Y-114398000D01*
D12*
X71649934Y-112194743D02*
X71602315Y-112242362D01*
X71459458Y-112289981D01*
X71364220Y-112289981D01*
X71221362Y-112242362D01*
X71126124Y-112147124D01*
X71078505Y-112051886D01*
X71030886Y-111861410D01*
X71030886Y-111718552D01*
X71078505Y-111528076D01*
X71126124Y-111432838D01*
X71221362Y-111337600D01*
X71364220Y-111289981D01*
X71459458Y-111289981D01*
X71602315Y-111337600D01*
X71649934Y-111385219D01*
X72602315Y-112289981D02*
X72030886Y-112289981D01*
X72316600Y-112289981D02*
X72316600Y-111289981D01*
X72221362Y-111432838D01*
X72126124Y-111528076D01*
X72030886Y-111575695D01*
X100863543Y-116280866D02*
X100911162Y-116328485D01*
X100958781Y-116471342D01*
X100958781Y-116566580D01*
X100911162Y-116709438D01*
X100815924Y-116804676D01*
X100720686Y-116852295D01*
X100530210Y-116899914D01*
X100387352Y-116899914D01*
X100196876Y-116852295D01*
X100101638Y-116804676D01*
X100006400Y-116709438D01*
X99958781Y-116566580D01*
X99958781Y-116471342D01*
X100006400Y-116328485D01*
X100054019Y-116280866D01*
X100054019Y-115899914D02*
X100006400Y-115852295D01*
X99958781Y-115757057D01*
X99958781Y-115518961D01*
X100006400Y-115423723D01*
X100054019Y-115376104D01*
X100149257Y-115328485D01*
X100244495Y-115328485D01*
X100387352Y-115376104D01*
X100958781Y-115947533D01*
X100958781Y-115328485D01*
X101828934Y-106248343D02*
X101781315Y-106295962D01*
X101638458Y-106343581D01*
X101543220Y-106343581D01*
X101400362Y-106295962D01*
X101305124Y-106200724D01*
X101257505Y-106105486D01*
X101209886Y-105915010D01*
X101209886Y-105772152D01*
X101257505Y-105581676D01*
X101305124Y-105486438D01*
X101400362Y-105391200D01*
X101543220Y-105343581D01*
X101638458Y-105343581D01*
X101781315Y-105391200D01*
X101828934Y-105438819D01*
X102162267Y-105343581D02*
X102781315Y-105343581D01*
X102447981Y-105724533D01*
X102590839Y-105724533D01*
X102686077Y-105772152D01*
X102733696Y-105819771D01*
X102781315Y-105915010D01*
X102781315Y-106153105D01*
X102733696Y-106248343D01*
X102686077Y-106295962D01*
X102590839Y-106343581D01*
X102305124Y-106343581D01*
X102209886Y-106295962D01*
X102162267Y-106248343D01*
X87226543Y-123113466D02*
X87274162Y-123161085D01*
X87321781Y-123303942D01*
X87321781Y-123399180D01*
X87274162Y-123542038D01*
X87178924Y-123637276D01*
X87083686Y-123684895D01*
X86893210Y-123732514D01*
X86750352Y-123732514D01*
X86559876Y-123684895D01*
X86464638Y-123637276D01*
X86369400Y-123542038D01*
X86321781Y-123399180D01*
X86321781Y-123303942D01*
X86369400Y-123161085D01*
X86417019Y-123113466D01*
X86655114Y-122256323D02*
X87321781Y-122256323D01*
X86274162Y-122494419D02*
X86988448Y-122732514D01*
X86988448Y-122113466D01*
X129282534Y-113591743D02*
X129234915Y-113639362D01*
X129092058Y-113686981D01*
X128996820Y-113686981D01*
X128853962Y-113639362D01*
X128758724Y-113544124D01*
X128711105Y-113448886D01*
X128663486Y-113258410D01*
X128663486Y-113115552D01*
X128711105Y-112925076D01*
X128758724Y-112829838D01*
X128853962Y-112734600D01*
X128996820Y-112686981D01*
X129092058Y-112686981D01*
X129234915Y-112734600D01*
X129282534Y-112782219D01*
X130187296Y-112686981D02*
X129711105Y-112686981D01*
X129663486Y-113163171D01*
X129711105Y-113115552D01*
X129806343Y-113067933D01*
X130044439Y-113067933D01*
X130139677Y-113115552D01*
X130187296Y-113163171D01*
X130234915Y-113258410D01*
X130234915Y-113496505D01*
X130187296Y-113591743D01*
X130139677Y-113639362D01*
X130044439Y-113686981D01*
X129806343Y-113686981D01*
X129711105Y-113639362D01*
X129663486Y-113591743D01*
X121158143Y-110972266D02*
X121205762Y-111019885D01*
X121253381Y-111162742D01*
X121253381Y-111257980D01*
X121205762Y-111400838D01*
X121110524Y-111496076D01*
X121015286Y-111543695D01*
X120824810Y-111591314D01*
X120681952Y-111591314D01*
X120491476Y-111543695D01*
X120396238Y-111496076D01*
X120301000Y-111400838D01*
X120253381Y-111257980D01*
X120253381Y-111162742D01*
X120301000Y-111019885D01*
X120348619Y-110972266D01*
X120253381Y-110115123D02*
X120253381Y-110305600D01*
X120301000Y-110400838D01*
X120348619Y-110448457D01*
X120491476Y-110543695D01*
X120681952Y-110591314D01*
X121062905Y-110591314D01*
X121158143Y-110543695D01*
X121205762Y-110496076D01*
X121253381Y-110400838D01*
X121253381Y-110210361D01*
X121205762Y-110115123D01*
X121158143Y-110067504D01*
X121062905Y-110019885D01*
X120824810Y-110019885D01*
X120729571Y-110067504D01*
X120681952Y-110115123D01*
X120634333Y-110210361D01*
X120634333Y-110400838D01*
X120681952Y-110496076D01*
X120729571Y-110543695D01*
X120824810Y-110591314D01*
X129260934Y-124383943D02*
X129213315Y-124431562D01*
X129070458Y-124479181D01*
X128975220Y-124479181D01*
X128832362Y-124431562D01*
X128737124Y-124336324D01*
X128689505Y-124241086D01*
X128641886Y-124050610D01*
X128641886Y-123907752D01*
X128689505Y-123717276D01*
X128737124Y-123622038D01*
X128832362Y-123526800D01*
X128975220Y-123479181D01*
X129070458Y-123479181D01*
X129213315Y-123526800D01*
X129260934Y-123574419D01*
X129594267Y-123479181D02*
X130260934Y-123479181D01*
X129832362Y-124479181D01*
X64274981Y-114527133D02*
X64989267Y-114527133D01*
X65132124Y-114574753D01*
X65227362Y-114669991D01*
X65274981Y-114812848D01*
X65274981Y-114908086D01*
X65274981Y-113527133D02*
X65274981Y-114098562D01*
X65274981Y-113812848D02*
X64274981Y-113812848D01*
X64417838Y-113908086D01*
X64513076Y-114003324D01*
X64560695Y-114098562D01*
X106672581Y-109299333D02*
X107386867Y-109299333D01*
X107529724Y-109346953D01*
X107624962Y-109442191D01*
X107672581Y-109585048D01*
X107672581Y-109680286D01*
X106767819Y-108870762D02*
X106720200Y-108823143D01*
X106672581Y-108727905D01*
X106672581Y-108489809D01*
X106720200Y-108394571D01*
X106767819Y-108346952D01*
X106863057Y-108299333D01*
X106958295Y-108299333D01*
X107101152Y-108346952D01*
X107672581Y-108918381D01*
X107672581Y-108299333D01*
X148345381Y-113545733D02*
X149059667Y-113545733D01*
X149202524Y-113593353D01*
X149297762Y-113688591D01*
X149345381Y-113831448D01*
X149345381Y-113926686D01*
X148345381Y-113164781D02*
X148345381Y-112545733D01*
X148726333Y-112879067D01*
X148726333Y-112736209D01*
X148773952Y-112640971D01*
X148821571Y-112593352D01*
X148916810Y-112545733D01*
X149154905Y-112545733D01*
X149250143Y-112593352D01*
X149297762Y-112640971D01*
X149345381Y-112736209D01*
X149345381Y-113021924D01*
X149297762Y-113117162D01*
X149250143Y-113164781D01*
X85883762Y-101788019D02*
X85788524Y-101740400D01*
X85693286Y-101645162D01*
X85550429Y-101502305D01*
X85455190Y-101454686D01*
X85359952Y-101454686D01*
X85407571Y-101692781D02*
X85312333Y-101645162D01*
X85217095Y-101549924D01*
X85169476Y-101359448D01*
X85169476Y-101026114D01*
X85217095Y-100835638D01*
X85312333Y-100740400D01*
X85407571Y-100692781D01*
X85598048Y-100692781D01*
X85693286Y-100740400D01*
X85788524Y-100835638D01*
X85836143Y-101026114D01*
X85836143Y-101359448D01*
X85788524Y-101549924D01*
X85693286Y-101645162D01*
X85598048Y-101692781D01*
X85407571Y-101692781D01*
X86788524Y-101692781D02*
X86217095Y-101692781D01*
X86502809Y-101692781D02*
X86502809Y-100692781D01*
X86407571Y-100835638D01*
X86312333Y-100930876D01*
X86217095Y-100978495D01*
X79588419Y-116046238D02*
X79540800Y-116141476D01*
X79445562Y-116236714D01*
X79302705Y-116379571D01*
X79255086Y-116474810D01*
X79255086Y-116570048D01*
X79493181Y-116522429D02*
X79445562Y-116617667D01*
X79350324Y-116712905D01*
X79159848Y-116760524D01*
X78826514Y-116760524D01*
X78636038Y-116712905D01*
X78540800Y-116617667D01*
X78493181Y-116522429D01*
X78493181Y-116331952D01*
X78540800Y-116236714D01*
X78636038Y-116141476D01*
X78826514Y-116093857D01*
X79159848Y-116093857D01*
X79350324Y-116141476D01*
X79445562Y-116236714D01*
X79493181Y-116331952D01*
X79493181Y-116522429D01*
X78588419Y-115712905D02*
X78540800Y-115665286D01*
X78493181Y-115570048D01*
X78493181Y-115331952D01*
X78540800Y-115236714D01*
X78588419Y-115189095D01*
X78683657Y-115141476D01*
X78778895Y-115141476D01*
X78921752Y-115189095D01*
X79493181Y-115760524D01*
X79493181Y-115141476D01*
X121955619Y-108299238D02*
X121908000Y-108394476D01*
X121812762Y-108489714D01*
X121669905Y-108632571D01*
X121622286Y-108727810D01*
X121622286Y-108823048D01*
X121860381Y-108775429D02*
X121812762Y-108870667D01*
X121717524Y-108965905D01*
X121527048Y-109013524D01*
X121193714Y-109013524D01*
X121003238Y-108965905D01*
X120908000Y-108870667D01*
X120860381Y-108775429D01*
X120860381Y-108584952D01*
X120908000Y-108489714D01*
X121003238Y-108394476D01*
X121193714Y-108346857D01*
X121527048Y-108346857D01*
X121717524Y-108394476D01*
X121812762Y-108489714D01*
X121860381Y-108584952D01*
X121860381Y-108775429D01*
X120860381Y-108013524D02*
X120860381Y-107394476D01*
X121241333Y-107727810D01*
X121241333Y-107584952D01*
X121288952Y-107489714D01*
X121336571Y-107442095D01*
X121431810Y-107394476D01*
X121669905Y-107394476D01*
X121765143Y-107442095D01*
X121812762Y-107489714D01*
X121860381Y-107584952D01*
X121860381Y-107870667D01*
X121812762Y-107965905D01*
X121765143Y-108013524D01*
X106208534Y-115901181D02*
X105875200Y-115424990D01*
X105637105Y-115901181D02*
X105637105Y-114901181D01*
X106018058Y-114901181D01*
X106113296Y-114948800D01*
X106160915Y-114996419D01*
X106208534Y-115091657D01*
X106208534Y-115234514D01*
X106160915Y-115329752D01*
X106113296Y-115377371D01*
X106018058Y-115424990D01*
X105637105Y-115424990D01*
X107160915Y-115901181D02*
X106589486Y-115901181D01*
X106875200Y-115901181D02*
X106875200Y-114901181D01*
X106779962Y-115044038D01*
X106684724Y-115139276D01*
X106589486Y-115186895D01*
X85181335Y-113099381D02*
X84848001Y-112623190D01*
X84609906Y-113099381D02*
X84609906Y-112099381D01*
X84990859Y-112099381D01*
X85086097Y-112147000D01*
X85133716Y-112194619D01*
X85181335Y-112289857D01*
X85181335Y-112432714D01*
X85133716Y-112527952D01*
X85086097Y-112575571D01*
X84990859Y-112623190D01*
X84609906Y-112623190D01*
X85562287Y-112194619D02*
X85609906Y-112147000D01*
X85705144Y-112099381D01*
X85943240Y-112099381D01*
X86038478Y-112147000D01*
X86086097Y-112194619D01*
X86133716Y-112289857D01*
X86133716Y-112385095D01*
X86086097Y-112527952D01*
X85514668Y-113099381D01*
X86133716Y-113099381D01*
X71613734Y-122733781D02*
X71280400Y-122257590D01*
X71042305Y-122733781D02*
X71042305Y-121733781D01*
X71423258Y-121733781D01*
X71518496Y-121781400D01*
X71566115Y-121829019D01*
X71613734Y-121924257D01*
X71613734Y-122067114D01*
X71566115Y-122162352D01*
X71518496Y-122209971D01*
X71423258Y-122257590D01*
X71042305Y-122257590D01*
X71947067Y-121733781D02*
X72566115Y-121733781D01*
X72232781Y-122114733D01*
X72375639Y-122114733D01*
X72470877Y-122162352D01*
X72518496Y-122209971D01*
X72566115Y-122305210D01*
X72566115Y-122543305D01*
X72518496Y-122638543D01*
X72470877Y-122686162D01*
X72375639Y-122733781D01*
X72089924Y-122733781D01*
X71994686Y-122686162D01*
X71947067Y-122638543D01*
X91353181Y-105703666D02*
X90876990Y-106037000D01*
X91353181Y-106275095D02*
X90353181Y-106275095D01*
X90353181Y-105894142D01*
X90400800Y-105798904D01*
X90448419Y-105751285D01*
X90543657Y-105703666D01*
X90686514Y-105703666D01*
X90781752Y-105751285D01*
X90829371Y-105798904D01*
X90876990Y-105894142D01*
X90876990Y-106275095D01*
X90686514Y-104846523D02*
X91353181Y-104846523D01*
X90305562Y-105084619D02*
X91019848Y-105322714D01*
X91019848Y-104703666D01*
X82056781Y-123051866D02*
X81580590Y-123385200D01*
X82056781Y-123623295D02*
X81056781Y-123623295D01*
X81056781Y-123242342D01*
X81104400Y-123147104D01*
X81152019Y-123099485D01*
X81247257Y-123051866D01*
X81390114Y-123051866D01*
X81485352Y-123099485D01*
X81532971Y-123147104D01*
X81580590Y-123242342D01*
X81580590Y-123623295D01*
X81056781Y-122147104D02*
X81056781Y-122623295D01*
X81532971Y-122670914D01*
X81485352Y-122623295D01*
X81437733Y-122528057D01*
X81437733Y-122289961D01*
X81485352Y-122194723D01*
X81532971Y-122147104D01*
X81628210Y-122099485D01*
X81866305Y-122099485D01*
X81961543Y-122147104D01*
X82009162Y-122194723D01*
X82056781Y-122289961D01*
X82056781Y-122528057D01*
X82009162Y-122623295D01*
X81961543Y-122670914D01*
X131329134Y-106897981D02*
X130995800Y-106421790D01*
X130757705Y-106897981D02*
X130757705Y-105897981D01*
X131138658Y-105897981D01*
X131233896Y-105945600D01*
X131281515Y-105993219D01*
X131329134Y-106088457D01*
X131329134Y-106231314D01*
X131281515Y-106326552D01*
X131233896Y-106374171D01*
X131138658Y-106421790D01*
X130757705Y-106421790D01*
X132186277Y-105897981D02*
X131995800Y-105897981D01*
X131900562Y-105945600D01*
X131852943Y-105993219D01*
X131757705Y-106136076D01*
X131710086Y-106326552D01*
X131710086Y-106707505D01*
X131757705Y-106802743D01*
X131805324Y-106850362D01*
X131900562Y-106897981D01*
X132091039Y-106897981D01*
X132186277Y-106850362D01*
X132233896Y-106802743D01*
X132281515Y-106707505D01*
X132281515Y-106469410D01*
X132233896Y-106374171D01*
X132186277Y-106326552D01*
X132091039Y-106278933D01*
X131900562Y-106278933D01*
X131805324Y-106326552D01*
X131757705Y-106374171D01*
X131710086Y-106469410D01*
X139888934Y-106923381D02*
X139555600Y-106447190D01*
X139317505Y-106923381D02*
X139317505Y-105923381D01*
X139698458Y-105923381D01*
X139793696Y-105971000D01*
X139841315Y-106018619D01*
X139888934Y-106113857D01*
X139888934Y-106256714D01*
X139841315Y-106351952D01*
X139793696Y-106399571D01*
X139698458Y-106447190D01*
X139317505Y-106447190D01*
X140222267Y-105923381D02*
X140888934Y-105923381D01*
X140460362Y-106923381D01*
X95515134Y-124144581D02*
X95181800Y-123668390D01*
X94943705Y-124144581D02*
X94943705Y-123144581D01*
X95324658Y-123144581D01*
X95419896Y-123192200D01*
X95467515Y-123239819D01*
X95515134Y-123335057D01*
X95515134Y-123477914D01*
X95467515Y-123573152D01*
X95419896Y-123620771D01*
X95324658Y-123668390D01*
X94943705Y-123668390D01*
X96086562Y-123573152D02*
X95991324Y-123525533D01*
X95943705Y-123477914D01*
X95896086Y-123382676D01*
X95896086Y-123335057D01*
X95943705Y-123239819D01*
X95991324Y-123192200D01*
X96086562Y-123144581D01*
X96277039Y-123144581D01*
X96372277Y-123192200D01*
X96419896Y-123239819D01*
X96467515Y-123335057D01*
X96467515Y-123382676D01*
X96419896Y-123477914D01*
X96372277Y-123525533D01*
X96277039Y-123573152D01*
X96086562Y-123573152D01*
X95991324Y-123620771D01*
X95943705Y-123668390D01*
X95896086Y-123763629D01*
X95896086Y-123954105D01*
X95943705Y-124049343D01*
X95991324Y-124096962D01*
X96086562Y-124144581D01*
X96277039Y-124144581D01*
X96372277Y-124096962D01*
X96419896Y-124049343D01*
X96467515Y-123954105D01*
X96467515Y-123763629D01*
X96419896Y-123668390D01*
X96372277Y-123620771D01*
X96277039Y-123573152D01*
X114006334Y-101716381D02*
X113673000Y-101240190D01*
X113434905Y-101716381D02*
X113434905Y-100716381D01*
X113815858Y-100716381D01*
X113911096Y-100764000D01*
X113958715Y-100811619D01*
X114006334Y-100906857D01*
X114006334Y-101049714D01*
X113958715Y-101144952D01*
X113911096Y-101192571D01*
X113815858Y-101240190D01*
X113434905Y-101240190D01*
X114482524Y-101716381D02*
X114673000Y-101716381D01*
X114768239Y-101668762D01*
X114815858Y-101621143D01*
X114911096Y-101478286D01*
X114958715Y-101287810D01*
X114958715Y-100906857D01*
X114911096Y-100811619D01*
X114863477Y-100764000D01*
X114768239Y-100716381D01*
X114577762Y-100716381D01*
X114482524Y-100764000D01*
X114434905Y-100811619D01*
X114387286Y-100906857D01*
X114387286Y-101144952D01*
X114434905Y-101240190D01*
X114482524Y-101287810D01*
X114577762Y-101335429D01*
X114768239Y-101335429D01*
X114863477Y-101287810D01*
X114911096Y-101240190D01*
X114958715Y-101144952D01*
X139412743Y-112130381D02*
X139079409Y-111654190D01*
X138841314Y-112130381D02*
X138841314Y-111130381D01*
X139222267Y-111130381D01*
X139317505Y-111178000D01*
X139365124Y-111225619D01*
X139412743Y-111320857D01*
X139412743Y-111463714D01*
X139365124Y-111558952D01*
X139317505Y-111606571D01*
X139222267Y-111654190D01*
X138841314Y-111654190D01*
X140365124Y-112130381D02*
X139793695Y-112130381D01*
X140079409Y-112130381D02*
X140079409Y-111130381D01*
X139984171Y-111273238D01*
X139888933Y-111368476D01*
X139793695Y-111416095D01*
X140984171Y-111130381D02*
X141079410Y-111130381D01*
X141174648Y-111178000D01*
X141222267Y-111225619D01*
X141269886Y-111320857D01*
X141317505Y-111511333D01*
X141317505Y-111749429D01*
X141269886Y-111939905D01*
X141222267Y-112035143D01*
X141174648Y-112082762D01*
X141079410Y-112130381D01*
X140984171Y-112130381D01*
X140888933Y-112082762D01*
X140841314Y-112035143D01*
X140793695Y-111939905D01*
X140746076Y-111749429D01*
X140746076Y-111511333D01*
X140793695Y-111320857D01*
X140841314Y-111225619D01*
X140888933Y-111178000D01*
X140984171Y-111130381D01*
M02*
