G04 #@! TF.FileFunction,Copper,L1,Top,Signal*
%FSLAX46Y46*%
G04 Gerber Fmt 4.6, Leading zero omitted, Abs format (unit mm)*
G04 Created by KiCad (PCBNEW 4.0.6) date 06/17/17 08:19:30*
%MOMM*%
%LPD*%
G01*
G04 APERTURE LIST*
%ADD10C,0.100000*%
%ADD11C,1.600000*%
%ADD12R,3.000000X3.000000*%
%ADD13C,3.000000*%
%ADD14R,1.000000X1.000000*%
%ADD15O,1.000000X1.000000*%
%ADD16C,1.000000*%
%ADD17C,1.400000*%
%ADD18O,1.400000X1.400000*%
%ADD19C,0.250000*%
%ADD20C,0.254000*%
G04 APERTURE END LIST*
D10*
D11*
X69316600Y-114147600D03*
X74316600Y-114147600D03*
X98196400Y-113614200D03*
X98196400Y-118614200D03*
X104495600Y-103581200D03*
X99495600Y-103581200D03*
X89179400Y-125446800D03*
X89179400Y-120446800D03*
X126949200Y-115544600D03*
X131949200Y-115544600D03*
X118491000Y-108305600D03*
X118491000Y-113305600D03*
X131927600Y-121716800D03*
X126927600Y-121716800D03*
D12*
X60172600Y-109143800D03*
D13*
X60172600Y-114223800D03*
X60172600Y-119303800D03*
D14*
X108915200Y-108966000D03*
D15*
X110185200Y-108966000D03*
D12*
X153543000Y-118262400D03*
D13*
X153543000Y-113182400D03*
X153543000Y-108102400D03*
D16*
X85979000Y-103530400D03*
X87249000Y-104800400D03*
D14*
X84709000Y-104800400D03*
D16*
X81330800Y-115951000D03*
X82600800Y-114681000D03*
D14*
X82600800Y-117221000D03*
D16*
X123698000Y-108204000D03*
X124968000Y-106934000D03*
D14*
X124968000Y-109474000D03*
D17*
X108915200Y-113588800D03*
D18*
X103835200Y-113588800D03*
D17*
X87731600Y-111023400D03*
D18*
X82651600Y-111023400D03*
D17*
X74320400Y-120421400D03*
D18*
X69240400Y-120421400D03*
D17*
X92760800Y-108077000D03*
D18*
X92760800Y-102997000D03*
D17*
X83464400Y-125425200D03*
D18*
X83464400Y-120345200D03*
D17*
X128955800Y-108305600D03*
D18*
X134035800Y-108305600D03*
D17*
X137515600Y-108331000D03*
D18*
X142595600Y-108331000D03*
D17*
X93141800Y-125552200D03*
D18*
X98221800Y-125552200D03*
D17*
X111633000Y-103124000D03*
D18*
X116713000Y-103124000D03*
D17*
X137515600Y-113538000D03*
D18*
X142595600Y-113538000D03*
D19*
X60172600Y-114223800D02*
X69240400Y-114223800D01*
X69240400Y-114223800D02*
X69316600Y-114147600D01*
X82600800Y-114681000D02*
X74850000Y-114681000D01*
X74850000Y-114681000D02*
X74316600Y-114147600D01*
X82600800Y-114681000D02*
X82600800Y-111074200D01*
X82600800Y-111074200D02*
X82651600Y-111023400D01*
X74316600Y-114147600D02*
X74316600Y-120417600D01*
X74316600Y-120417600D02*
X74320400Y-120421400D01*
X87249000Y-104800400D02*
X87249000Y-108352306D01*
X87249000Y-108352306D02*
X87731600Y-108834906D01*
X98196400Y-113614200D02*
X90322400Y-113614200D01*
X90322400Y-113614200D02*
X87731600Y-111023400D01*
X103835200Y-113588800D02*
X98221800Y-113588800D01*
X98221800Y-113588800D02*
X98196400Y-113614200D01*
X87731600Y-108834906D02*
X87731600Y-110033451D01*
X87731600Y-110033451D02*
X87731600Y-111023400D01*
X60172600Y-109143800D02*
X58422600Y-109143800D01*
X58672601Y-117803801D02*
X60172600Y-119303800D01*
X58422600Y-109143800D02*
X58347599Y-109218801D01*
X58347599Y-109218801D02*
X58347599Y-117478799D01*
X58347599Y-117478799D02*
X58672601Y-117803801D01*
X118491000Y-113305600D02*
X118491000Y-114945202D01*
X118491000Y-114945202D02*
X126387599Y-122841801D01*
X126387599Y-122841801D02*
X128848209Y-122841801D01*
X128848209Y-122841801D02*
X137127009Y-114563001D01*
X141570599Y-114563001D02*
X141895601Y-114237999D01*
X137127009Y-114563001D02*
X141570599Y-114563001D01*
X141895601Y-114237999D02*
X142595600Y-113538000D01*
X142595600Y-108331000D02*
X142595600Y-109320949D01*
X142595600Y-109320949D02*
X142595600Y-113538000D01*
X153543000Y-118262400D02*
X153543000Y-116512400D01*
X153543000Y-116512400D02*
X155368001Y-114687399D01*
X155368001Y-114687399D02*
X155368001Y-109927401D01*
X155368001Y-109927401D02*
X155042999Y-109602399D01*
X155042999Y-109602399D02*
X153543000Y-108102400D01*
X153543000Y-108102400D02*
X142824200Y-108102400D01*
X142824200Y-108102400D02*
X142595600Y-108331000D01*
X69240400Y-120421400D02*
X69240400Y-121411349D01*
X97196799Y-126577201D02*
X97521801Y-126252199D01*
X69240400Y-121411349D02*
X74406252Y-126577201D01*
X74406252Y-126577201D02*
X97196799Y-126577201D01*
X97521801Y-126252199D02*
X98221800Y-125552200D01*
X98196400Y-118614200D02*
X98196400Y-125526800D01*
X98196400Y-125526800D02*
X98221800Y-125552200D01*
X110185200Y-108966000D02*
X110185200Y-113835802D01*
X110185200Y-113835802D02*
X105406802Y-118614200D01*
X105406802Y-118614200D02*
X99327770Y-118614200D01*
X99327770Y-118614200D02*
X98196400Y-118614200D01*
X110185200Y-108966000D02*
X114524800Y-113305600D01*
X114524800Y-113305600D02*
X118491000Y-113305600D01*
X60172600Y-119303800D02*
X68122800Y-119303800D01*
X68122800Y-119303800D02*
X69240400Y-120421400D01*
X115646200Y-106934000D02*
X115874800Y-106934000D01*
X115874800Y-106934000D02*
X124968000Y-106934000D01*
X111633000Y-103124000D02*
X111633000Y-104113949D01*
X114453051Y-106934000D02*
X115874800Y-106934000D01*
X111633000Y-104113949D02*
X114453051Y-106934000D01*
X111633000Y-103124000D02*
X104952800Y-103124000D01*
X104952800Y-103124000D02*
X104495600Y-103581200D01*
X111556800Y-102997000D02*
X111633000Y-102920800D01*
X85979000Y-103530400D02*
X86512400Y-102997000D01*
X86512400Y-102997000D02*
X92760800Y-102997000D01*
X92760800Y-102997000D02*
X99466400Y-102997000D01*
X92735400Y-103022400D02*
X92760800Y-102997000D01*
X83464400Y-125425200D02*
X89157800Y-125425200D01*
X89157800Y-125425200D02*
X89179400Y-125446800D01*
X93141800Y-125552200D02*
X89284800Y-125552200D01*
X89284800Y-125552200D02*
X89179400Y-125446800D01*
X82600800Y-117221000D02*
X82600800Y-119481600D01*
X82600800Y-119481600D02*
X83464400Y-120345200D01*
X89179400Y-120446800D02*
X83566000Y-120446800D01*
X83566000Y-120446800D02*
X83464400Y-120345200D01*
X126949200Y-115544600D02*
X128074201Y-116669601D01*
X128074201Y-116669601D02*
X134383999Y-116669601D01*
X134383999Y-116669601D02*
X136815601Y-114237999D01*
X136815601Y-114237999D02*
X137515600Y-113538000D01*
X126949200Y-115544600D02*
X126949200Y-121695200D01*
X126949200Y-121695200D02*
X126927600Y-121716800D01*
X126949200Y-115544600D02*
X126949200Y-110705200D01*
X126949200Y-110705200D02*
X125718000Y-109474000D01*
X125718000Y-109474000D02*
X124968000Y-109474000D01*
X92760800Y-108077000D02*
X108585000Y-108077000D01*
X108585000Y-108077000D02*
X108776200Y-108077000D01*
X118491000Y-108305600D02*
X117359630Y-108305600D01*
X117359630Y-108305600D02*
X117131030Y-108077000D01*
X117131030Y-108077000D02*
X108585000Y-108077000D01*
X108776200Y-108077000D02*
X108915200Y-108216000D01*
X108915200Y-108216000D02*
X108915200Y-108966000D01*
X108915200Y-108966000D02*
X108915200Y-109716000D01*
X108915200Y-109716000D02*
X108915200Y-113588800D01*
X123698000Y-108204000D02*
X128854200Y-108204000D01*
X128854200Y-108204000D02*
X128955800Y-108305600D01*
X118491000Y-108305600D02*
X123596400Y-108305600D01*
X123596400Y-108305600D02*
X123698000Y-108204000D01*
X131927600Y-121716800D02*
X132727599Y-120916801D01*
X132727599Y-120916801D02*
X145808599Y-120916801D01*
X145808599Y-120916801D02*
X152043001Y-114682399D01*
X152043001Y-114682399D02*
X153543000Y-113182400D01*
X81330800Y-115951000D02*
X82551802Y-115951000D01*
X82551802Y-115951000D02*
X83676601Y-114826201D01*
X83676601Y-114826201D02*
X83676601Y-107362801D01*
X83676601Y-107362801D02*
X84709000Y-106330402D01*
X84709000Y-106330402D02*
X84709000Y-104800400D01*
X137515600Y-108331000D02*
X134061200Y-108331000D01*
X134061200Y-108331000D02*
X134035800Y-108305600D01*
X116713000Y-103124000D02*
X117702949Y-103124000D01*
X117702949Y-103124000D02*
X117906149Y-102920800D01*
X117906149Y-102920800D02*
X128651000Y-102920800D01*
X134035800Y-108305600D02*
X131949200Y-110392200D01*
X131949200Y-110392200D02*
X131949200Y-115544600D01*
X128651000Y-102920800D02*
X134035800Y-108305600D01*
D20*
G36*
X161367400Y-108752092D02*
X161367400Y-121140355D01*
X154598416Y-127814000D01*
X58845899Y-127814000D01*
X56769922Y-125689583D01*
X82129169Y-125689583D01*
X82331982Y-126180429D01*
X82707196Y-126556298D01*
X83197687Y-126759968D01*
X83728783Y-126760431D01*
X84219629Y-126557618D01*
X84592697Y-126185200D01*
X87931829Y-126185200D01*
X87962157Y-126258600D01*
X88365477Y-126662624D01*
X88892709Y-126881550D01*
X89463587Y-126882048D01*
X89991200Y-126664043D01*
X90343657Y-126312200D01*
X92014145Y-126312200D01*
X92384596Y-126683298D01*
X92875087Y-126886968D01*
X93406183Y-126887431D01*
X93897029Y-126684618D01*
X94272898Y-126309404D01*
X94448906Y-125885529D01*
X96929084Y-125885529D01*
X97072003Y-126230596D01*
X97419137Y-126618964D01*
X97888469Y-126844927D01*
X98094800Y-126722406D01*
X98094800Y-125679200D01*
X98348800Y-125679200D01*
X98348800Y-126722406D01*
X98555131Y-126844927D01*
X99024463Y-126618964D01*
X99371597Y-126230596D01*
X99514516Y-125885529D01*
X99391174Y-125679200D01*
X98348800Y-125679200D01*
X98094800Y-125679200D01*
X97052426Y-125679200D01*
X96929084Y-125885529D01*
X94448906Y-125885529D01*
X94476568Y-125818913D01*
X94477031Y-125287817D01*
X94448544Y-125218871D01*
X96929084Y-125218871D01*
X97052426Y-125425200D01*
X98094800Y-125425200D01*
X98094800Y-124381994D01*
X98348800Y-124381994D01*
X98348800Y-125425200D01*
X99391174Y-125425200D01*
X99514516Y-125218871D01*
X99371597Y-124873804D01*
X99024463Y-124485436D01*
X98555131Y-124259473D01*
X98348800Y-124381994D01*
X98094800Y-124381994D01*
X97888469Y-124259473D01*
X97419137Y-124485436D01*
X97072003Y-124873804D01*
X96929084Y-125218871D01*
X94448544Y-125218871D01*
X94274218Y-124796971D01*
X93899004Y-124421102D01*
X93408513Y-124217432D01*
X92877417Y-124216969D01*
X92386571Y-124419782D01*
X92013503Y-124792200D01*
X90461597Y-124792200D01*
X90396643Y-124635000D01*
X89993323Y-124230976D01*
X89466091Y-124012050D01*
X88895213Y-124011552D01*
X88367600Y-124229557D01*
X87963576Y-124632877D01*
X87950154Y-124665200D01*
X84592055Y-124665200D01*
X84221604Y-124294102D01*
X83731113Y-124090432D01*
X83200017Y-124089969D01*
X82709171Y-124292782D01*
X82333302Y-124667996D01*
X82129632Y-125158487D01*
X82129169Y-125689583D01*
X56769922Y-125689583D01*
X52009193Y-120817770D01*
X58838235Y-120817770D01*
X58998018Y-121136539D01*
X59788787Y-121446523D01*
X60637987Y-121430297D01*
X61347182Y-121136539D01*
X61506965Y-120817770D01*
X61443924Y-120754729D01*
X67947684Y-120754729D01*
X68090603Y-121099796D01*
X68437737Y-121488164D01*
X68907069Y-121714127D01*
X69113400Y-121591606D01*
X69113400Y-120548400D01*
X69367400Y-120548400D01*
X69367400Y-121591606D01*
X69573731Y-121714127D01*
X70043063Y-121488164D01*
X70390197Y-121099796D01*
X70533116Y-120754729D01*
X70409774Y-120548400D01*
X69367400Y-120548400D01*
X69113400Y-120548400D01*
X68071026Y-120548400D01*
X67947684Y-120754729D01*
X61443924Y-120754729D01*
X60172600Y-119483405D01*
X58838235Y-120817770D01*
X52009193Y-120817770D01*
X51637000Y-120436893D01*
X51637000Y-118919987D01*
X58029877Y-118919987D01*
X58046103Y-119769187D01*
X58339861Y-120478382D01*
X58658630Y-120638165D01*
X59992995Y-119303800D01*
X60352205Y-119303800D01*
X61686570Y-120638165D01*
X62005339Y-120478382D01*
X62158342Y-120088071D01*
X67947684Y-120088071D01*
X68071026Y-120294400D01*
X69113400Y-120294400D01*
X69113400Y-119251194D01*
X69367400Y-119251194D01*
X69367400Y-120294400D01*
X70409774Y-120294400D01*
X70533116Y-120088071D01*
X70390197Y-119743004D01*
X70043063Y-119354636D01*
X69573731Y-119128673D01*
X69367400Y-119251194D01*
X69113400Y-119251194D01*
X68907069Y-119128673D01*
X68437737Y-119354636D01*
X68090603Y-119743004D01*
X67947684Y-120088071D01*
X62158342Y-120088071D01*
X62315323Y-119687613D01*
X62299097Y-118838413D01*
X62005339Y-118129218D01*
X61686570Y-117969435D01*
X60352205Y-119303800D01*
X59992995Y-119303800D01*
X58658630Y-117969435D01*
X58339861Y-118129218D01*
X58029877Y-118919987D01*
X51637000Y-118919987D01*
X51637000Y-117789830D01*
X58838235Y-117789830D01*
X60172600Y-119124195D01*
X61506965Y-117789830D01*
X61347182Y-117471061D01*
X60556413Y-117161077D01*
X59707213Y-117177303D01*
X58998018Y-117471061D01*
X58838235Y-117789830D01*
X51637000Y-117789830D01*
X51637000Y-114646615D01*
X58037230Y-114646615D01*
X58361580Y-115431600D01*
X58961641Y-116032709D01*
X59746059Y-116358428D01*
X60595415Y-116359170D01*
X61380400Y-116034820D01*
X61981509Y-115434759D01*
X62168764Y-114983800D01*
X68123714Y-114983800D01*
X68502677Y-115363424D01*
X69029909Y-115582350D01*
X69600787Y-115582848D01*
X70128400Y-115364843D01*
X70532424Y-114961523D01*
X70751350Y-114434291D01*
X70751352Y-114431787D01*
X72881352Y-114431787D01*
X73099357Y-114959400D01*
X73502677Y-115363424D01*
X73556600Y-115385815D01*
X73556600Y-119297538D01*
X73189302Y-119664196D01*
X72985632Y-120154687D01*
X72985169Y-120685783D01*
X73187982Y-121176629D01*
X73563196Y-121552498D01*
X74053687Y-121756168D01*
X74584783Y-121756631D01*
X75075629Y-121553818D01*
X75451498Y-121178604D01*
X75655168Y-120688113D01*
X75655631Y-120157017D01*
X75452818Y-119666171D01*
X75077604Y-119290302D01*
X75076600Y-119289885D01*
X75076600Y-115441000D01*
X80313611Y-115441000D01*
X80195997Y-115724244D01*
X80195603Y-116175775D01*
X80368033Y-116593086D01*
X80687035Y-116912645D01*
X81104044Y-117085803D01*
X81453360Y-117086108D01*
X81453360Y-117721000D01*
X81497638Y-117956317D01*
X81636710Y-118172441D01*
X81840800Y-118311890D01*
X81840800Y-119481600D01*
X81898652Y-119772439D01*
X82063399Y-120019001D01*
X82168230Y-120123832D01*
X82129400Y-120319046D01*
X82129400Y-120371354D01*
X82231021Y-120882236D01*
X82520412Y-121315342D01*
X82953518Y-121604733D01*
X83464400Y-121706354D01*
X83975282Y-121604733D01*
X84408388Y-121315342D01*
X84480913Y-121206800D01*
X87940754Y-121206800D01*
X87962157Y-121258600D01*
X88365477Y-121662624D01*
X88892709Y-121881550D01*
X89463587Y-121882048D01*
X89991200Y-121664043D01*
X90395224Y-121260723D01*
X90614150Y-120733491D01*
X90614648Y-120162613D01*
X90396643Y-119635000D01*
X90383611Y-119621945D01*
X97368261Y-119621945D01*
X97442395Y-119868064D01*
X97979623Y-120061165D01*
X98549854Y-120033978D01*
X98950405Y-119868064D01*
X99024539Y-119621945D01*
X98196400Y-118793805D01*
X97368261Y-119621945D01*
X90383611Y-119621945D01*
X89993323Y-119230976D01*
X89466091Y-119012050D01*
X88895213Y-119011552D01*
X88367600Y-119229557D01*
X87963576Y-119632877D01*
X87941185Y-119686800D01*
X84616686Y-119686800D01*
X84408388Y-119375058D01*
X83975282Y-119085667D01*
X83464400Y-118984046D01*
X83360800Y-119004653D01*
X83360800Y-118397423D01*
X96749435Y-118397423D01*
X96776622Y-118967654D01*
X96942536Y-119368205D01*
X97188655Y-119442339D01*
X98016795Y-118614200D01*
X98376005Y-118614200D01*
X99204145Y-119442339D01*
X99450264Y-119368205D01*
X99643365Y-118830977D01*
X99616178Y-118260746D01*
X99450264Y-117860195D01*
X99204145Y-117786061D01*
X98376005Y-118614200D01*
X98016795Y-118614200D01*
X97188655Y-117786061D01*
X96942536Y-117860195D01*
X96749435Y-118397423D01*
X83360800Y-118397423D01*
X83360800Y-118308279D01*
X83552241Y-118185090D01*
X83697231Y-117972890D01*
X83748240Y-117721000D01*
X83748240Y-117606455D01*
X97368261Y-117606455D01*
X98196400Y-118434595D01*
X99024539Y-117606455D01*
X98950405Y-117360336D01*
X98413177Y-117167235D01*
X97842946Y-117194422D01*
X97442395Y-117360336D01*
X97368261Y-117606455D01*
X83748240Y-117606455D01*
X83748240Y-116721000D01*
X83703962Y-116485683D01*
X83564890Y-116269559D01*
X83412303Y-116165301D01*
X84214002Y-115363602D01*
X84378749Y-115117040D01*
X84436601Y-114826201D01*
X84436601Y-107677603D01*
X85246401Y-106867803D01*
X85411148Y-106621241D01*
X85469000Y-106330402D01*
X85469000Y-105887679D01*
X85660441Y-105764490D01*
X85805431Y-105552290D01*
X85856440Y-105300400D01*
X85856440Y-104665294D01*
X86114117Y-104665519D01*
X86113803Y-105025175D01*
X86286233Y-105442486D01*
X86489000Y-105645607D01*
X86489000Y-108352306D01*
X86546852Y-108643145D01*
X86711599Y-108889707D01*
X86971600Y-109149708D01*
X86971600Y-109895745D01*
X86600502Y-110266196D01*
X86396832Y-110756687D01*
X86396369Y-111287783D01*
X86599182Y-111778629D01*
X86974396Y-112154498D01*
X87464887Y-112358168D01*
X87992025Y-112358628D01*
X89784998Y-114151601D01*
X89914303Y-114237999D01*
X90031561Y-114316348D01*
X90322400Y-114374200D01*
X96957754Y-114374200D01*
X96979157Y-114426000D01*
X97382477Y-114830024D01*
X97909709Y-115048950D01*
X98480587Y-115049448D01*
X99008200Y-114831443D01*
X99412224Y-114428123D01*
X99445162Y-114348800D01*
X102742122Y-114348800D01*
X102865058Y-114532788D01*
X103298164Y-114822179D01*
X103809046Y-114923800D01*
X103861354Y-114923800D01*
X104372236Y-114822179D01*
X104805342Y-114532788D01*
X105094733Y-114099682D01*
X105196354Y-113588800D01*
X105094733Y-113077918D01*
X104805342Y-112644812D01*
X104372236Y-112355421D01*
X103861354Y-112253800D01*
X103809046Y-112253800D01*
X103298164Y-112355421D01*
X102865058Y-112644812D01*
X102742122Y-112828800D01*
X99424551Y-112828800D01*
X99413643Y-112802400D01*
X99010323Y-112398376D01*
X98483091Y-112179450D01*
X97912213Y-112178952D01*
X97384600Y-112396957D01*
X96980576Y-112800277D01*
X96958185Y-112854200D01*
X90637203Y-112854200D01*
X89066374Y-111283372D01*
X89066831Y-110759017D01*
X88864018Y-110268171D01*
X88491600Y-109895103D01*
X88491600Y-108834906D01*
X88433748Y-108544067D01*
X88433748Y-108544066D01*
X88298320Y-108341383D01*
X91425569Y-108341383D01*
X91628382Y-108832229D01*
X92003596Y-109208098D01*
X92494087Y-109411768D01*
X93025183Y-109412231D01*
X93516029Y-109209418D01*
X93889097Y-108837000D01*
X107767760Y-108837000D01*
X107767760Y-109466000D01*
X107812038Y-109701317D01*
X107951110Y-109917441D01*
X108155200Y-110056890D01*
X108155200Y-112461145D01*
X107784102Y-112831596D01*
X107580432Y-113322087D01*
X107579969Y-113853183D01*
X107782782Y-114344029D01*
X108157996Y-114719898D01*
X108648487Y-114923568D01*
X109179583Y-114924031D01*
X109670429Y-114721218D01*
X110046298Y-114346004D01*
X110059859Y-114313345D01*
X117662861Y-114313345D01*
X117736995Y-114559464D01*
X118274223Y-114752565D01*
X118844454Y-114725378D01*
X119245005Y-114559464D01*
X119319139Y-114313345D01*
X118491000Y-113485205D01*
X117662861Y-114313345D01*
X110059859Y-114313345D01*
X110249968Y-113855513D01*
X110250431Y-113324417D01*
X110153086Y-113088823D01*
X117044035Y-113088823D01*
X117071222Y-113659054D01*
X117237136Y-114059605D01*
X117483255Y-114133739D01*
X118311395Y-113305600D01*
X118670605Y-113305600D01*
X119498745Y-114133739D01*
X119744864Y-114059605D01*
X119937965Y-113522377D01*
X119910778Y-112952146D01*
X119744864Y-112551595D01*
X119498745Y-112477461D01*
X118670605Y-113305600D01*
X118311395Y-113305600D01*
X117483255Y-112477461D01*
X117237136Y-112551595D01*
X117044035Y-113088823D01*
X110153086Y-113088823D01*
X110047618Y-112833571D01*
X109675200Y-112460503D01*
X109675200Y-112297855D01*
X117662861Y-112297855D01*
X118491000Y-113125995D01*
X119319139Y-112297855D01*
X119245005Y-112051736D01*
X118707777Y-111858635D01*
X118137546Y-111885822D01*
X117736995Y-112051736D01*
X117662861Y-112297855D01*
X109675200Y-112297855D01*
X109675200Y-110053279D01*
X109750232Y-110004997D01*
X109883326Y-110060119D01*
X110058200Y-109933954D01*
X110058200Y-109487925D01*
X110062640Y-109466000D01*
X110062640Y-109093000D01*
X110312200Y-109093000D01*
X110312200Y-109933954D01*
X110487074Y-110060119D01*
X110745409Y-109953127D01*
X111080523Y-109663604D01*
X111279332Y-109267877D01*
X111154335Y-109093000D01*
X110312200Y-109093000D01*
X110062640Y-109093000D01*
X110062640Y-108837000D01*
X110312200Y-108837000D01*
X110312200Y-108839000D01*
X111154335Y-108839000D01*
X111155765Y-108837000D01*
X116816228Y-108837000D01*
X116822229Y-108843001D01*
X117068790Y-109007748D01*
X117242747Y-109042350D01*
X117273757Y-109117400D01*
X117677077Y-109521424D01*
X118204309Y-109740350D01*
X118775187Y-109740848D01*
X119302800Y-109522843D01*
X119706824Y-109119523D01*
X119729215Y-109065600D01*
X122954364Y-109065600D01*
X123054235Y-109165645D01*
X123471244Y-109338803D01*
X123820560Y-109339108D01*
X123820560Y-109974000D01*
X123864838Y-110209317D01*
X124003910Y-110425441D01*
X124216110Y-110570431D01*
X124468000Y-110621440D01*
X125468000Y-110621440D01*
X125703317Y-110577162D01*
X125729507Y-110560309D01*
X126189200Y-111020002D01*
X126189200Y-114305954D01*
X126137400Y-114327357D01*
X125733376Y-114730677D01*
X125514450Y-115257909D01*
X125513952Y-115828787D01*
X125731957Y-116356400D01*
X126135277Y-116760424D01*
X126189200Y-116782815D01*
X126189200Y-120469229D01*
X126115800Y-120499557D01*
X125711776Y-120902877D01*
X125492850Y-121430109D01*
X125492352Y-122000987D01*
X125710357Y-122528600D01*
X126113677Y-122932624D01*
X126640909Y-123151550D01*
X127211787Y-123152048D01*
X127739400Y-122934043D01*
X128143424Y-122530723D01*
X128362350Y-122003491D01*
X128362352Y-122000987D01*
X130492352Y-122000987D01*
X130710357Y-122528600D01*
X131113677Y-122932624D01*
X131640909Y-123151550D01*
X132211787Y-123152048D01*
X132739400Y-122934043D01*
X133143424Y-122530723D01*
X133362350Y-122003491D01*
X133362635Y-121676801D01*
X145808599Y-121676801D01*
X146099438Y-121618949D01*
X146346000Y-121454202D01*
X149252052Y-118548150D01*
X151408000Y-118548150D01*
X151408000Y-119888709D01*
X151504673Y-120122098D01*
X151683301Y-120300727D01*
X151916690Y-120397400D01*
X153257250Y-120397400D01*
X153416000Y-120238650D01*
X153416000Y-118389400D01*
X153670000Y-118389400D01*
X153670000Y-120238650D01*
X153828750Y-120397400D01*
X155169310Y-120397400D01*
X155402699Y-120300727D01*
X155581327Y-120122098D01*
X155678000Y-119888709D01*
X155678000Y-118548150D01*
X155519250Y-118389400D01*
X153670000Y-118389400D01*
X153416000Y-118389400D01*
X151566750Y-118389400D01*
X151408000Y-118548150D01*
X149252052Y-118548150D01*
X151164111Y-116636091D01*
X151408000Y-116636091D01*
X151408000Y-117976650D01*
X151566750Y-118135400D01*
X153416000Y-118135400D01*
X153416000Y-116286150D01*
X153670000Y-116286150D01*
X153670000Y-118135400D01*
X155519250Y-118135400D01*
X155678000Y-117976650D01*
X155678000Y-116636091D01*
X155581327Y-116402702D01*
X155402699Y-116224073D01*
X155169310Y-116127400D01*
X153828750Y-116127400D01*
X153670000Y-116286150D01*
X153416000Y-116286150D01*
X153257250Y-116127400D01*
X151916690Y-116127400D01*
X151683301Y-116224073D01*
X151504673Y-116402702D01*
X151408000Y-116636091D01*
X151164111Y-116636091D01*
X152668983Y-115131219D01*
X153116459Y-115317028D01*
X153965815Y-115317770D01*
X154750800Y-114993420D01*
X155351909Y-114393359D01*
X155677628Y-113608941D01*
X155678370Y-112759585D01*
X155354020Y-111974600D01*
X154753959Y-111373491D01*
X153969541Y-111047772D01*
X153120185Y-111047030D01*
X152335200Y-111371380D01*
X151734091Y-111971441D01*
X151408372Y-112755859D01*
X151407630Y-113605215D01*
X151594098Y-114056500D01*
X145493797Y-120156801D01*
X132727599Y-120156801D01*
X132485013Y-120205055D01*
X132436759Y-120214653D01*
X132289287Y-120313191D01*
X132214291Y-120282050D01*
X131643413Y-120281552D01*
X131115800Y-120499557D01*
X130711776Y-120902877D01*
X130492850Y-121430109D01*
X130492352Y-122000987D01*
X128362352Y-122000987D01*
X128362848Y-121432613D01*
X128144843Y-120905000D01*
X127741523Y-120500976D01*
X127709200Y-120487554D01*
X127709200Y-117322196D01*
X127783362Y-117371749D01*
X128074201Y-117429601D01*
X134383999Y-117429601D01*
X134674838Y-117371749D01*
X134921400Y-117207002D01*
X137255628Y-114872774D01*
X137779983Y-114873231D01*
X138270829Y-114670418D01*
X138646698Y-114295204D01*
X138822706Y-113871329D01*
X141302884Y-113871329D01*
X141445803Y-114216396D01*
X141792937Y-114604764D01*
X142262269Y-114830727D01*
X142468600Y-114708206D01*
X142468600Y-113665000D01*
X142722600Y-113665000D01*
X142722600Y-114708206D01*
X142928931Y-114830727D01*
X143398263Y-114604764D01*
X143745397Y-114216396D01*
X143888316Y-113871329D01*
X143764974Y-113665000D01*
X142722600Y-113665000D01*
X142468600Y-113665000D01*
X141426226Y-113665000D01*
X141302884Y-113871329D01*
X138822706Y-113871329D01*
X138850368Y-113804713D01*
X138850831Y-113273617D01*
X138822344Y-113204671D01*
X141302884Y-113204671D01*
X141426226Y-113411000D01*
X142468600Y-113411000D01*
X142468600Y-112367794D01*
X142722600Y-112367794D01*
X142722600Y-113411000D01*
X143764974Y-113411000D01*
X143888316Y-113204671D01*
X143745397Y-112859604D01*
X143398263Y-112471236D01*
X142928931Y-112245273D01*
X142722600Y-112367794D01*
X142468600Y-112367794D01*
X142262269Y-112245273D01*
X141792937Y-112471236D01*
X141445803Y-112859604D01*
X141302884Y-113204671D01*
X138822344Y-113204671D01*
X138648018Y-112782771D01*
X138272804Y-112406902D01*
X137782313Y-112203232D01*
X137251217Y-112202769D01*
X136760371Y-112405582D01*
X136384502Y-112780796D01*
X136180832Y-113271287D01*
X136180372Y-113798426D01*
X134069197Y-115909601D01*
X133351433Y-115909601D01*
X133383950Y-115831291D01*
X133384448Y-115260413D01*
X133166443Y-114732800D01*
X132763123Y-114328776D01*
X132709200Y-114306385D01*
X132709200Y-110707002D01*
X133814432Y-109601770D01*
X134009646Y-109640600D01*
X134061954Y-109640600D01*
X134572836Y-109538979D01*
X135005942Y-109249588D01*
X135111907Y-109091000D01*
X136387945Y-109091000D01*
X136758396Y-109462098D01*
X137248887Y-109665768D01*
X137779983Y-109666231D01*
X138270829Y-109463418D01*
X138646698Y-109088204D01*
X138822706Y-108664329D01*
X141302884Y-108664329D01*
X141445803Y-109009396D01*
X141792937Y-109397764D01*
X142262269Y-109623727D01*
X142468600Y-109501206D01*
X142468600Y-108458000D01*
X142722600Y-108458000D01*
X142722600Y-109501206D01*
X142928931Y-109623727D01*
X142944211Y-109616370D01*
X152208635Y-109616370D01*
X152368418Y-109935139D01*
X153159187Y-110245123D01*
X154008387Y-110228897D01*
X154717582Y-109935139D01*
X154877365Y-109616370D01*
X153543000Y-108282005D01*
X152208635Y-109616370D01*
X142944211Y-109616370D01*
X143398263Y-109397764D01*
X143745397Y-109009396D01*
X143888316Y-108664329D01*
X143764974Y-108458000D01*
X142722600Y-108458000D01*
X142468600Y-108458000D01*
X141426226Y-108458000D01*
X141302884Y-108664329D01*
X138822706Y-108664329D01*
X138850368Y-108597713D01*
X138850831Y-108066617D01*
X138822344Y-107997671D01*
X141302884Y-107997671D01*
X141426226Y-108204000D01*
X142468600Y-108204000D01*
X142468600Y-107160794D01*
X142722600Y-107160794D01*
X142722600Y-108204000D01*
X143764974Y-108204000D01*
X143888316Y-107997671D01*
X143772726Y-107718587D01*
X151400277Y-107718587D01*
X151416503Y-108567787D01*
X151710261Y-109276982D01*
X152029030Y-109436765D01*
X153363395Y-108102400D01*
X153722605Y-108102400D01*
X155056970Y-109436765D01*
X155375739Y-109276982D01*
X155685723Y-108486213D01*
X155669497Y-107637013D01*
X155375739Y-106927818D01*
X155056970Y-106768035D01*
X153722605Y-108102400D01*
X153363395Y-108102400D01*
X152029030Y-106768035D01*
X151710261Y-106927818D01*
X151400277Y-107718587D01*
X143772726Y-107718587D01*
X143745397Y-107652604D01*
X143398263Y-107264236D01*
X142928931Y-107038273D01*
X142722600Y-107160794D01*
X142468600Y-107160794D01*
X142262269Y-107038273D01*
X141792937Y-107264236D01*
X141445803Y-107652604D01*
X141302884Y-107997671D01*
X138822344Y-107997671D01*
X138648018Y-107575771D01*
X138272804Y-107199902D01*
X137782313Y-106996232D01*
X137251217Y-106995769D01*
X136760371Y-107198582D01*
X136387303Y-107571000D01*
X135145850Y-107571000D01*
X135005942Y-107361612D01*
X134572836Y-107072221D01*
X134061954Y-106970600D01*
X134009646Y-106970600D01*
X133814432Y-107009430D01*
X133393432Y-106588430D01*
X152208635Y-106588430D01*
X153543000Y-107922795D01*
X154877365Y-106588430D01*
X154717582Y-106269661D01*
X153926813Y-105959677D01*
X153077613Y-105975903D01*
X152368418Y-106269661D01*
X152208635Y-106588430D01*
X133393432Y-106588430D01*
X129188401Y-102383399D01*
X128941839Y-102218652D01*
X128651000Y-102160800D01*
X117906149Y-102160800D01*
X117697973Y-102202209D01*
X117683142Y-102180012D01*
X117250036Y-101890621D01*
X116739154Y-101789000D01*
X116686846Y-101789000D01*
X116175964Y-101890621D01*
X115742858Y-102180012D01*
X115453467Y-102613118D01*
X115351846Y-103124000D01*
X115453467Y-103634882D01*
X115742858Y-104067988D01*
X116175964Y-104357379D01*
X116686846Y-104459000D01*
X116739154Y-104459000D01*
X117250036Y-104357379D01*
X117683142Y-104067988D01*
X117821886Y-103860342D01*
X117993788Y-103826148D01*
X118211317Y-103680800D01*
X128336198Y-103680800D01*
X132722155Y-108066757D01*
X132674646Y-108305600D01*
X132722155Y-108544443D01*
X131411799Y-109854799D01*
X131247052Y-110101361D01*
X131189200Y-110392200D01*
X131189200Y-114305954D01*
X131137400Y-114327357D01*
X130733376Y-114730677D01*
X130514450Y-115257909D01*
X130513952Y-115828787D01*
X130547344Y-115909601D01*
X128389003Y-115909601D01*
X128362456Y-115883054D01*
X128383950Y-115831291D01*
X128384448Y-115260413D01*
X128166443Y-114732800D01*
X127763123Y-114328776D01*
X127709200Y-114306385D01*
X127709200Y-110705200D01*
X127651348Y-110414361D01*
X127486601Y-110167799D01*
X126282802Y-108964000D01*
X127783373Y-108964000D01*
X127823382Y-109060829D01*
X128198596Y-109436698D01*
X128689087Y-109640368D01*
X129220183Y-109640831D01*
X129711029Y-109438018D01*
X130086898Y-109062804D01*
X130290568Y-108572313D01*
X130291031Y-108041217D01*
X130088218Y-107550371D01*
X129713004Y-107174502D01*
X129222513Y-106970832D01*
X128691417Y-106970369D01*
X128200571Y-107173182D01*
X127929280Y-107444000D01*
X125985189Y-107444000D01*
X126102803Y-107160756D01*
X126103197Y-106709225D01*
X125930767Y-106291914D01*
X125611765Y-105972355D01*
X125194756Y-105799197D01*
X124743225Y-105798803D01*
X124325914Y-105971233D01*
X124122793Y-106174000D01*
X114767853Y-106174000D01*
X112619451Y-104025598D01*
X112764098Y-103881204D01*
X112967768Y-103390713D01*
X112968231Y-102859617D01*
X112765418Y-102368771D01*
X112390204Y-101992902D01*
X111899713Y-101789232D01*
X111368617Y-101788769D01*
X110877771Y-101991582D01*
X110504703Y-102364000D01*
X105306209Y-102364000D01*
X104782291Y-102146450D01*
X104211413Y-102145952D01*
X103683800Y-102363957D01*
X103279776Y-102767277D01*
X103060850Y-103294509D01*
X103060352Y-103865387D01*
X103278357Y-104393000D01*
X103681677Y-104797024D01*
X104208909Y-105015950D01*
X104779787Y-105016448D01*
X105307400Y-104798443D01*
X105711424Y-104395123D01*
X105923661Y-103884000D01*
X110505345Y-103884000D01*
X110875796Y-104255098D01*
X110903353Y-104266541D01*
X110930852Y-104404788D01*
X111095599Y-104651350D01*
X113761249Y-107317000D01*
X93888455Y-107317000D01*
X93518004Y-106945902D01*
X93027513Y-106742232D01*
X92496417Y-106741769D01*
X92005571Y-106944582D01*
X91629702Y-107319796D01*
X91426032Y-107810287D01*
X91425569Y-108341383D01*
X88298320Y-108341383D01*
X88269001Y-108297505D01*
X88009000Y-108037504D01*
X88009000Y-105645459D01*
X88210645Y-105444165D01*
X88383803Y-105027156D01*
X88384197Y-104575625D01*
X88211767Y-104158314D01*
X87892765Y-103838755D01*
X87695878Y-103757000D01*
X91676400Y-103757000D01*
X91816812Y-103967142D01*
X92249918Y-104256533D01*
X92760800Y-104358154D01*
X93271682Y-104256533D01*
X93704788Y-103967142D01*
X93845200Y-103757000D01*
X98060447Y-103757000D01*
X98060352Y-103865387D01*
X98278357Y-104393000D01*
X98681677Y-104797024D01*
X99208909Y-105015950D01*
X99779787Y-105016448D01*
X100307400Y-104798443D01*
X100711424Y-104395123D01*
X100930350Y-103867891D01*
X100930848Y-103297013D01*
X100712843Y-102769400D01*
X100309523Y-102365376D01*
X99782291Y-102146450D01*
X99211413Y-102145952D01*
X98991060Y-102237000D01*
X93845200Y-102237000D01*
X93704788Y-102026858D01*
X93271682Y-101737467D01*
X92760800Y-101635846D01*
X92249918Y-101737467D01*
X91816812Y-102026858D01*
X91676400Y-102237000D01*
X86512400Y-102237000D01*
X86221561Y-102294852D01*
X86070961Y-102395479D01*
X85754225Y-102395203D01*
X85336914Y-102567633D01*
X85017355Y-102886635D01*
X84844197Y-103303644D01*
X84843892Y-103652960D01*
X84209000Y-103652960D01*
X83973683Y-103697238D01*
X83757559Y-103836310D01*
X83612569Y-104048510D01*
X83561560Y-104300400D01*
X83561560Y-105300400D01*
X83605838Y-105535717D01*
X83744910Y-105751841D01*
X83949000Y-105891290D01*
X83949000Y-106015600D01*
X83139200Y-106825400D01*
X82974453Y-107071962D01*
X82916601Y-107362801D01*
X82916601Y-109735910D01*
X82677754Y-109688400D01*
X82625446Y-109688400D01*
X82114564Y-109790021D01*
X81681458Y-110079412D01*
X81392067Y-110512518D01*
X81290446Y-111023400D01*
X81392067Y-111534282D01*
X81681458Y-111967388D01*
X81840800Y-112073856D01*
X81840800Y-113835941D01*
X81755593Y-113921000D01*
X75751798Y-113921000D01*
X75751848Y-113863413D01*
X75533843Y-113335800D01*
X75130523Y-112931776D01*
X74603291Y-112712850D01*
X74032413Y-112712352D01*
X73504800Y-112930357D01*
X73100776Y-113333677D01*
X72881850Y-113860909D01*
X72881352Y-114431787D01*
X70751352Y-114431787D01*
X70751848Y-113863413D01*
X70533843Y-113335800D01*
X70130523Y-112931776D01*
X69603291Y-112712850D01*
X69032413Y-112712352D01*
X68504800Y-112930357D01*
X68100776Y-113333677D01*
X68046744Y-113463800D01*
X62168648Y-113463800D01*
X61983620Y-113016000D01*
X61383559Y-112414891D01*
X60599141Y-112089172D01*
X59749785Y-112088430D01*
X58964800Y-112412780D01*
X58363691Y-113012841D01*
X58037972Y-113797259D01*
X58037230Y-114646615D01*
X51637000Y-114646615D01*
X51637000Y-109429550D01*
X58037600Y-109429550D01*
X58037600Y-110770109D01*
X58134273Y-111003498D01*
X58312901Y-111182127D01*
X58546290Y-111278800D01*
X59886850Y-111278800D01*
X60045600Y-111120050D01*
X60045600Y-109270800D01*
X60299600Y-109270800D01*
X60299600Y-111120050D01*
X60458350Y-111278800D01*
X61798910Y-111278800D01*
X62032299Y-111182127D01*
X62210927Y-111003498D01*
X62307600Y-110770109D01*
X62307600Y-109429550D01*
X62148850Y-109270800D01*
X60299600Y-109270800D01*
X60045600Y-109270800D01*
X58196350Y-109270800D01*
X58037600Y-109429550D01*
X51637000Y-109429550D01*
X51637000Y-108752092D01*
X52871601Y-107517491D01*
X58037600Y-107517491D01*
X58037600Y-108858050D01*
X58196350Y-109016800D01*
X60045600Y-109016800D01*
X60045600Y-107167550D01*
X60299600Y-107167550D01*
X60299600Y-109016800D01*
X62148850Y-109016800D01*
X62307600Y-108858050D01*
X62307600Y-107517491D01*
X62210927Y-107284102D01*
X62032299Y-107105473D01*
X61798910Y-107008800D01*
X60458350Y-107008800D01*
X60299600Y-107167550D01*
X60045600Y-107167550D01*
X59886850Y-107008800D01*
X58546290Y-107008800D01*
X58312901Y-107105473D01*
X58134273Y-107284102D01*
X58037600Y-107517491D01*
X52871601Y-107517491D01*
X59222092Y-101167000D01*
X153782308Y-101167000D01*
X161367400Y-108752092D01*
X161367400Y-108752092D01*
G37*
X161367400Y-108752092D02*
X161367400Y-121140355D01*
X154598416Y-127814000D01*
X58845899Y-127814000D01*
X56769922Y-125689583D01*
X82129169Y-125689583D01*
X82331982Y-126180429D01*
X82707196Y-126556298D01*
X83197687Y-126759968D01*
X83728783Y-126760431D01*
X84219629Y-126557618D01*
X84592697Y-126185200D01*
X87931829Y-126185200D01*
X87962157Y-126258600D01*
X88365477Y-126662624D01*
X88892709Y-126881550D01*
X89463587Y-126882048D01*
X89991200Y-126664043D01*
X90343657Y-126312200D01*
X92014145Y-126312200D01*
X92384596Y-126683298D01*
X92875087Y-126886968D01*
X93406183Y-126887431D01*
X93897029Y-126684618D01*
X94272898Y-126309404D01*
X94448906Y-125885529D01*
X96929084Y-125885529D01*
X97072003Y-126230596D01*
X97419137Y-126618964D01*
X97888469Y-126844927D01*
X98094800Y-126722406D01*
X98094800Y-125679200D01*
X98348800Y-125679200D01*
X98348800Y-126722406D01*
X98555131Y-126844927D01*
X99024463Y-126618964D01*
X99371597Y-126230596D01*
X99514516Y-125885529D01*
X99391174Y-125679200D01*
X98348800Y-125679200D01*
X98094800Y-125679200D01*
X97052426Y-125679200D01*
X96929084Y-125885529D01*
X94448906Y-125885529D01*
X94476568Y-125818913D01*
X94477031Y-125287817D01*
X94448544Y-125218871D01*
X96929084Y-125218871D01*
X97052426Y-125425200D01*
X98094800Y-125425200D01*
X98094800Y-124381994D01*
X98348800Y-124381994D01*
X98348800Y-125425200D01*
X99391174Y-125425200D01*
X99514516Y-125218871D01*
X99371597Y-124873804D01*
X99024463Y-124485436D01*
X98555131Y-124259473D01*
X98348800Y-124381994D01*
X98094800Y-124381994D01*
X97888469Y-124259473D01*
X97419137Y-124485436D01*
X97072003Y-124873804D01*
X96929084Y-125218871D01*
X94448544Y-125218871D01*
X94274218Y-124796971D01*
X93899004Y-124421102D01*
X93408513Y-124217432D01*
X92877417Y-124216969D01*
X92386571Y-124419782D01*
X92013503Y-124792200D01*
X90461597Y-124792200D01*
X90396643Y-124635000D01*
X89993323Y-124230976D01*
X89466091Y-124012050D01*
X88895213Y-124011552D01*
X88367600Y-124229557D01*
X87963576Y-124632877D01*
X87950154Y-124665200D01*
X84592055Y-124665200D01*
X84221604Y-124294102D01*
X83731113Y-124090432D01*
X83200017Y-124089969D01*
X82709171Y-124292782D01*
X82333302Y-124667996D01*
X82129632Y-125158487D01*
X82129169Y-125689583D01*
X56769922Y-125689583D01*
X52009193Y-120817770D01*
X58838235Y-120817770D01*
X58998018Y-121136539D01*
X59788787Y-121446523D01*
X60637987Y-121430297D01*
X61347182Y-121136539D01*
X61506965Y-120817770D01*
X61443924Y-120754729D01*
X67947684Y-120754729D01*
X68090603Y-121099796D01*
X68437737Y-121488164D01*
X68907069Y-121714127D01*
X69113400Y-121591606D01*
X69113400Y-120548400D01*
X69367400Y-120548400D01*
X69367400Y-121591606D01*
X69573731Y-121714127D01*
X70043063Y-121488164D01*
X70390197Y-121099796D01*
X70533116Y-120754729D01*
X70409774Y-120548400D01*
X69367400Y-120548400D01*
X69113400Y-120548400D01*
X68071026Y-120548400D01*
X67947684Y-120754729D01*
X61443924Y-120754729D01*
X60172600Y-119483405D01*
X58838235Y-120817770D01*
X52009193Y-120817770D01*
X51637000Y-120436893D01*
X51637000Y-118919987D01*
X58029877Y-118919987D01*
X58046103Y-119769187D01*
X58339861Y-120478382D01*
X58658630Y-120638165D01*
X59992995Y-119303800D01*
X60352205Y-119303800D01*
X61686570Y-120638165D01*
X62005339Y-120478382D01*
X62158342Y-120088071D01*
X67947684Y-120088071D01*
X68071026Y-120294400D01*
X69113400Y-120294400D01*
X69113400Y-119251194D01*
X69367400Y-119251194D01*
X69367400Y-120294400D01*
X70409774Y-120294400D01*
X70533116Y-120088071D01*
X70390197Y-119743004D01*
X70043063Y-119354636D01*
X69573731Y-119128673D01*
X69367400Y-119251194D01*
X69113400Y-119251194D01*
X68907069Y-119128673D01*
X68437737Y-119354636D01*
X68090603Y-119743004D01*
X67947684Y-120088071D01*
X62158342Y-120088071D01*
X62315323Y-119687613D01*
X62299097Y-118838413D01*
X62005339Y-118129218D01*
X61686570Y-117969435D01*
X60352205Y-119303800D01*
X59992995Y-119303800D01*
X58658630Y-117969435D01*
X58339861Y-118129218D01*
X58029877Y-118919987D01*
X51637000Y-118919987D01*
X51637000Y-117789830D01*
X58838235Y-117789830D01*
X60172600Y-119124195D01*
X61506965Y-117789830D01*
X61347182Y-117471061D01*
X60556413Y-117161077D01*
X59707213Y-117177303D01*
X58998018Y-117471061D01*
X58838235Y-117789830D01*
X51637000Y-117789830D01*
X51637000Y-114646615D01*
X58037230Y-114646615D01*
X58361580Y-115431600D01*
X58961641Y-116032709D01*
X59746059Y-116358428D01*
X60595415Y-116359170D01*
X61380400Y-116034820D01*
X61981509Y-115434759D01*
X62168764Y-114983800D01*
X68123714Y-114983800D01*
X68502677Y-115363424D01*
X69029909Y-115582350D01*
X69600787Y-115582848D01*
X70128400Y-115364843D01*
X70532424Y-114961523D01*
X70751350Y-114434291D01*
X70751352Y-114431787D01*
X72881352Y-114431787D01*
X73099357Y-114959400D01*
X73502677Y-115363424D01*
X73556600Y-115385815D01*
X73556600Y-119297538D01*
X73189302Y-119664196D01*
X72985632Y-120154687D01*
X72985169Y-120685783D01*
X73187982Y-121176629D01*
X73563196Y-121552498D01*
X74053687Y-121756168D01*
X74584783Y-121756631D01*
X75075629Y-121553818D01*
X75451498Y-121178604D01*
X75655168Y-120688113D01*
X75655631Y-120157017D01*
X75452818Y-119666171D01*
X75077604Y-119290302D01*
X75076600Y-119289885D01*
X75076600Y-115441000D01*
X80313611Y-115441000D01*
X80195997Y-115724244D01*
X80195603Y-116175775D01*
X80368033Y-116593086D01*
X80687035Y-116912645D01*
X81104044Y-117085803D01*
X81453360Y-117086108D01*
X81453360Y-117721000D01*
X81497638Y-117956317D01*
X81636710Y-118172441D01*
X81840800Y-118311890D01*
X81840800Y-119481600D01*
X81898652Y-119772439D01*
X82063399Y-120019001D01*
X82168230Y-120123832D01*
X82129400Y-120319046D01*
X82129400Y-120371354D01*
X82231021Y-120882236D01*
X82520412Y-121315342D01*
X82953518Y-121604733D01*
X83464400Y-121706354D01*
X83975282Y-121604733D01*
X84408388Y-121315342D01*
X84480913Y-121206800D01*
X87940754Y-121206800D01*
X87962157Y-121258600D01*
X88365477Y-121662624D01*
X88892709Y-121881550D01*
X89463587Y-121882048D01*
X89991200Y-121664043D01*
X90395224Y-121260723D01*
X90614150Y-120733491D01*
X90614648Y-120162613D01*
X90396643Y-119635000D01*
X90383611Y-119621945D01*
X97368261Y-119621945D01*
X97442395Y-119868064D01*
X97979623Y-120061165D01*
X98549854Y-120033978D01*
X98950405Y-119868064D01*
X99024539Y-119621945D01*
X98196400Y-118793805D01*
X97368261Y-119621945D01*
X90383611Y-119621945D01*
X89993323Y-119230976D01*
X89466091Y-119012050D01*
X88895213Y-119011552D01*
X88367600Y-119229557D01*
X87963576Y-119632877D01*
X87941185Y-119686800D01*
X84616686Y-119686800D01*
X84408388Y-119375058D01*
X83975282Y-119085667D01*
X83464400Y-118984046D01*
X83360800Y-119004653D01*
X83360800Y-118397423D01*
X96749435Y-118397423D01*
X96776622Y-118967654D01*
X96942536Y-119368205D01*
X97188655Y-119442339D01*
X98016795Y-118614200D01*
X98376005Y-118614200D01*
X99204145Y-119442339D01*
X99450264Y-119368205D01*
X99643365Y-118830977D01*
X99616178Y-118260746D01*
X99450264Y-117860195D01*
X99204145Y-117786061D01*
X98376005Y-118614200D01*
X98016795Y-118614200D01*
X97188655Y-117786061D01*
X96942536Y-117860195D01*
X96749435Y-118397423D01*
X83360800Y-118397423D01*
X83360800Y-118308279D01*
X83552241Y-118185090D01*
X83697231Y-117972890D01*
X83748240Y-117721000D01*
X83748240Y-117606455D01*
X97368261Y-117606455D01*
X98196400Y-118434595D01*
X99024539Y-117606455D01*
X98950405Y-117360336D01*
X98413177Y-117167235D01*
X97842946Y-117194422D01*
X97442395Y-117360336D01*
X97368261Y-117606455D01*
X83748240Y-117606455D01*
X83748240Y-116721000D01*
X83703962Y-116485683D01*
X83564890Y-116269559D01*
X83412303Y-116165301D01*
X84214002Y-115363602D01*
X84378749Y-115117040D01*
X84436601Y-114826201D01*
X84436601Y-107677603D01*
X85246401Y-106867803D01*
X85411148Y-106621241D01*
X85469000Y-106330402D01*
X85469000Y-105887679D01*
X85660441Y-105764490D01*
X85805431Y-105552290D01*
X85856440Y-105300400D01*
X85856440Y-104665294D01*
X86114117Y-104665519D01*
X86113803Y-105025175D01*
X86286233Y-105442486D01*
X86489000Y-105645607D01*
X86489000Y-108352306D01*
X86546852Y-108643145D01*
X86711599Y-108889707D01*
X86971600Y-109149708D01*
X86971600Y-109895745D01*
X86600502Y-110266196D01*
X86396832Y-110756687D01*
X86396369Y-111287783D01*
X86599182Y-111778629D01*
X86974396Y-112154498D01*
X87464887Y-112358168D01*
X87992025Y-112358628D01*
X89784998Y-114151601D01*
X89914303Y-114237999D01*
X90031561Y-114316348D01*
X90322400Y-114374200D01*
X96957754Y-114374200D01*
X96979157Y-114426000D01*
X97382477Y-114830024D01*
X97909709Y-115048950D01*
X98480587Y-115049448D01*
X99008200Y-114831443D01*
X99412224Y-114428123D01*
X99445162Y-114348800D01*
X102742122Y-114348800D01*
X102865058Y-114532788D01*
X103298164Y-114822179D01*
X103809046Y-114923800D01*
X103861354Y-114923800D01*
X104372236Y-114822179D01*
X104805342Y-114532788D01*
X105094733Y-114099682D01*
X105196354Y-113588800D01*
X105094733Y-113077918D01*
X104805342Y-112644812D01*
X104372236Y-112355421D01*
X103861354Y-112253800D01*
X103809046Y-112253800D01*
X103298164Y-112355421D01*
X102865058Y-112644812D01*
X102742122Y-112828800D01*
X99424551Y-112828800D01*
X99413643Y-112802400D01*
X99010323Y-112398376D01*
X98483091Y-112179450D01*
X97912213Y-112178952D01*
X97384600Y-112396957D01*
X96980576Y-112800277D01*
X96958185Y-112854200D01*
X90637203Y-112854200D01*
X89066374Y-111283372D01*
X89066831Y-110759017D01*
X88864018Y-110268171D01*
X88491600Y-109895103D01*
X88491600Y-108834906D01*
X88433748Y-108544067D01*
X88433748Y-108544066D01*
X88298320Y-108341383D01*
X91425569Y-108341383D01*
X91628382Y-108832229D01*
X92003596Y-109208098D01*
X92494087Y-109411768D01*
X93025183Y-109412231D01*
X93516029Y-109209418D01*
X93889097Y-108837000D01*
X107767760Y-108837000D01*
X107767760Y-109466000D01*
X107812038Y-109701317D01*
X107951110Y-109917441D01*
X108155200Y-110056890D01*
X108155200Y-112461145D01*
X107784102Y-112831596D01*
X107580432Y-113322087D01*
X107579969Y-113853183D01*
X107782782Y-114344029D01*
X108157996Y-114719898D01*
X108648487Y-114923568D01*
X109179583Y-114924031D01*
X109670429Y-114721218D01*
X110046298Y-114346004D01*
X110059859Y-114313345D01*
X117662861Y-114313345D01*
X117736995Y-114559464D01*
X118274223Y-114752565D01*
X118844454Y-114725378D01*
X119245005Y-114559464D01*
X119319139Y-114313345D01*
X118491000Y-113485205D01*
X117662861Y-114313345D01*
X110059859Y-114313345D01*
X110249968Y-113855513D01*
X110250431Y-113324417D01*
X110153086Y-113088823D01*
X117044035Y-113088823D01*
X117071222Y-113659054D01*
X117237136Y-114059605D01*
X117483255Y-114133739D01*
X118311395Y-113305600D01*
X118670605Y-113305600D01*
X119498745Y-114133739D01*
X119744864Y-114059605D01*
X119937965Y-113522377D01*
X119910778Y-112952146D01*
X119744864Y-112551595D01*
X119498745Y-112477461D01*
X118670605Y-113305600D01*
X118311395Y-113305600D01*
X117483255Y-112477461D01*
X117237136Y-112551595D01*
X117044035Y-113088823D01*
X110153086Y-113088823D01*
X110047618Y-112833571D01*
X109675200Y-112460503D01*
X109675200Y-112297855D01*
X117662861Y-112297855D01*
X118491000Y-113125995D01*
X119319139Y-112297855D01*
X119245005Y-112051736D01*
X118707777Y-111858635D01*
X118137546Y-111885822D01*
X117736995Y-112051736D01*
X117662861Y-112297855D01*
X109675200Y-112297855D01*
X109675200Y-110053279D01*
X109750232Y-110004997D01*
X109883326Y-110060119D01*
X110058200Y-109933954D01*
X110058200Y-109487925D01*
X110062640Y-109466000D01*
X110062640Y-109093000D01*
X110312200Y-109093000D01*
X110312200Y-109933954D01*
X110487074Y-110060119D01*
X110745409Y-109953127D01*
X111080523Y-109663604D01*
X111279332Y-109267877D01*
X111154335Y-109093000D01*
X110312200Y-109093000D01*
X110062640Y-109093000D01*
X110062640Y-108837000D01*
X110312200Y-108837000D01*
X110312200Y-108839000D01*
X111154335Y-108839000D01*
X111155765Y-108837000D01*
X116816228Y-108837000D01*
X116822229Y-108843001D01*
X117068790Y-109007748D01*
X117242747Y-109042350D01*
X117273757Y-109117400D01*
X117677077Y-109521424D01*
X118204309Y-109740350D01*
X118775187Y-109740848D01*
X119302800Y-109522843D01*
X119706824Y-109119523D01*
X119729215Y-109065600D01*
X122954364Y-109065600D01*
X123054235Y-109165645D01*
X123471244Y-109338803D01*
X123820560Y-109339108D01*
X123820560Y-109974000D01*
X123864838Y-110209317D01*
X124003910Y-110425441D01*
X124216110Y-110570431D01*
X124468000Y-110621440D01*
X125468000Y-110621440D01*
X125703317Y-110577162D01*
X125729507Y-110560309D01*
X126189200Y-111020002D01*
X126189200Y-114305954D01*
X126137400Y-114327357D01*
X125733376Y-114730677D01*
X125514450Y-115257909D01*
X125513952Y-115828787D01*
X125731957Y-116356400D01*
X126135277Y-116760424D01*
X126189200Y-116782815D01*
X126189200Y-120469229D01*
X126115800Y-120499557D01*
X125711776Y-120902877D01*
X125492850Y-121430109D01*
X125492352Y-122000987D01*
X125710357Y-122528600D01*
X126113677Y-122932624D01*
X126640909Y-123151550D01*
X127211787Y-123152048D01*
X127739400Y-122934043D01*
X128143424Y-122530723D01*
X128362350Y-122003491D01*
X128362352Y-122000987D01*
X130492352Y-122000987D01*
X130710357Y-122528600D01*
X131113677Y-122932624D01*
X131640909Y-123151550D01*
X132211787Y-123152048D01*
X132739400Y-122934043D01*
X133143424Y-122530723D01*
X133362350Y-122003491D01*
X133362635Y-121676801D01*
X145808599Y-121676801D01*
X146099438Y-121618949D01*
X146346000Y-121454202D01*
X149252052Y-118548150D01*
X151408000Y-118548150D01*
X151408000Y-119888709D01*
X151504673Y-120122098D01*
X151683301Y-120300727D01*
X151916690Y-120397400D01*
X153257250Y-120397400D01*
X153416000Y-120238650D01*
X153416000Y-118389400D01*
X153670000Y-118389400D01*
X153670000Y-120238650D01*
X153828750Y-120397400D01*
X155169310Y-120397400D01*
X155402699Y-120300727D01*
X155581327Y-120122098D01*
X155678000Y-119888709D01*
X155678000Y-118548150D01*
X155519250Y-118389400D01*
X153670000Y-118389400D01*
X153416000Y-118389400D01*
X151566750Y-118389400D01*
X151408000Y-118548150D01*
X149252052Y-118548150D01*
X151164111Y-116636091D01*
X151408000Y-116636091D01*
X151408000Y-117976650D01*
X151566750Y-118135400D01*
X153416000Y-118135400D01*
X153416000Y-116286150D01*
X153670000Y-116286150D01*
X153670000Y-118135400D01*
X155519250Y-118135400D01*
X155678000Y-117976650D01*
X155678000Y-116636091D01*
X155581327Y-116402702D01*
X155402699Y-116224073D01*
X155169310Y-116127400D01*
X153828750Y-116127400D01*
X153670000Y-116286150D01*
X153416000Y-116286150D01*
X153257250Y-116127400D01*
X151916690Y-116127400D01*
X151683301Y-116224073D01*
X151504673Y-116402702D01*
X151408000Y-116636091D01*
X151164111Y-116636091D01*
X152668983Y-115131219D01*
X153116459Y-115317028D01*
X153965815Y-115317770D01*
X154750800Y-114993420D01*
X155351909Y-114393359D01*
X155677628Y-113608941D01*
X155678370Y-112759585D01*
X155354020Y-111974600D01*
X154753959Y-111373491D01*
X153969541Y-111047772D01*
X153120185Y-111047030D01*
X152335200Y-111371380D01*
X151734091Y-111971441D01*
X151408372Y-112755859D01*
X151407630Y-113605215D01*
X151594098Y-114056500D01*
X145493797Y-120156801D01*
X132727599Y-120156801D01*
X132485013Y-120205055D01*
X132436759Y-120214653D01*
X132289287Y-120313191D01*
X132214291Y-120282050D01*
X131643413Y-120281552D01*
X131115800Y-120499557D01*
X130711776Y-120902877D01*
X130492850Y-121430109D01*
X130492352Y-122000987D01*
X128362352Y-122000987D01*
X128362848Y-121432613D01*
X128144843Y-120905000D01*
X127741523Y-120500976D01*
X127709200Y-120487554D01*
X127709200Y-117322196D01*
X127783362Y-117371749D01*
X128074201Y-117429601D01*
X134383999Y-117429601D01*
X134674838Y-117371749D01*
X134921400Y-117207002D01*
X137255628Y-114872774D01*
X137779983Y-114873231D01*
X138270829Y-114670418D01*
X138646698Y-114295204D01*
X138822706Y-113871329D01*
X141302884Y-113871329D01*
X141445803Y-114216396D01*
X141792937Y-114604764D01*
X142262269Y-114830727D01*
X142468600Y-114708206D01*
X142468600Y-113665000D01*
X142722600Y-113665000D01*
X142722600Y-114708206D01*
X142928931Y-114830727D01*
X143398263Y-114604764D01*
X143745397Y-114216396D01*
X143888316Y-113871329D01*
X143764974Y-113665000D01*
X142722600Y-113665000D01*
X142468600Y-113665000D01*
X141426226Y-113665000D01*
X141302884Y-113871329D01*
X138822706Y-113871329D01*
X138850368Y-113804713D01*
X138850831Y-113273617D01*
X138822344Y-113204671D01*
X141302884Y-113204671D01*
X141426226Y-113411000D01*
X142468600Y-113411000D01*
X142468600Y-112367794D01*
X142722600Y-112367794D01*
X142722600Y-113411000D01*
X143764974Y-113411000D01*
X143888316Y-113204671D01*
X143745397Y-112859604D01*
X143398263Y-112471236D01*
X142928931Y-112245273D01*
X142722600Y-112367794D01*
X142468600Y-112367794D01*
X142262269Y-112245273D01*
X141792937Y-112471236D01*
X141445803Y-112859604D01*
X141302884Y-113204671D01*
X138822344Y-113204671D01*
X138648018Y-112782771D01*
X138272804Y-112406902D01*
X137782313Y-112203232D01*
X137251217Y-112202769D01*
X136760371Y-112405582D01*
X136384502Y-112780796D01*
X136180832Y-113271287D01*
X136180372Y-113798426D01*
X134069197Y-115909601D01*
X133351433Y-115909601D01*
X133383950Y-115831291D01*
X133384448Y-115260413D01*
X133166443Y-114732800D01*
X132763123Y-114328776D01*
X132709200Y-114306385D01*
X132709200Y-110707002D01*
X133814432Y-109601770D01*
X134009646Y-109640600D01*
X134061954Y-109640600D01*
X134572836Y-109538979D01*
X135005942Y-109249588D01*
X135111907Y-109091000D01*
X136387945Y-109091000D01*
X136758396Y-109462098D01*
X137248887Y-109665768D01*
X137779983Y-109666231D01*
X138270829Y-109463418D01*
X138646698Y-109088204D01*
X138822706Y-108664329D01*
X141302884Y-108664329D01*
X141445803Y-109009396D01*
X141792937Y-109397764D01*
X142262269Y-109623727D01*
X142468600Y-109501206D01*
X142468600Y-108458000D01*
X142722600Y-108458000D01*
X142722600Y-109501206D01*
X142928931Y-109623727D01*
X142944211Y-109616370D01*
X152208635Y-109616370D01*
X152368418Y-109935139D01*
X153159187Y-110245123D01*
X154008387Y-110228897D01*
X154717582Y-109935139D01*
X154877365Y-109616370D01*
X153543000Y-108282005D01*
X152208635Y-109616370D01*
X142944211Y-109616370D01*
X143398263Y-109397764D01*
X143745397Y-109009396D01*
X143888316Y-108664329D01*
X143764974Y-108458000D01*
X142722600Y-108458000D01*
X142468600Y-108458000D01*
X141426226Y-108458000D01*
X141302884Y-108664329D01*
X138822706Y-108664329D01*
X138850368Y-108597713D01*
X138850831Y-108066617D01*
X138822344Y-107997671D01*
X141302884Y-107997671D01*
X141426226Y-108204000D01*
X142468600Y-108204000D01*
X142468600Y-107160794D01*
X142722600Y-107160794D01*
X142722600Y-108204000D01*
X143764974Y-108204000D01*
X143888316Y-107997671D01*
X143772726Y-107718587D01*
X151400277Y-107718587D01*
X151416503Y-108567787D01*
X151710261Y-109276982D01*
X152029030Y-109436765D01*
X153363395Y-108102400D01*
X153722605Y-108102400D01*
X155056970Y-109436765D01*
X155375739Y-109276982D01*
X155685723Y-108486213D01*
X155669497Y-107637013D01*
X155375739Y-106927818D01*
X155056970Y-106768035D01*
X153722605Y-108102400D01*
X153363395Y-108102400D01*
X152029030Y-106768035D01*
X151710261Y-106927818D01*
X151400277Y-107718587D01*
X143772726Y-107718587D01*
X143745397Y-107652604D01*
X143398263Y-107264236D01*
X142928931Y-107038273D01*
X142722600Y-107160794D01*
X142468600Y-107160794D01*
X142262269Y-107038273D01*
X141792937Y-107264236D01*
X141445803Y-107652604D01*
X141302884Y-107997671D01*
X138822344Y-107997671D01*
X138648018Y-107575771D01*
X138272804Y-107199902D01*
X137782313Y-106996232D01*
X137251217Y-106995769D01*
X136760371Y-107198582D01*
X136387303Y-107571000D01*
X135145850Y-107571000D01*
X135005942Y-107361612D01*
X134572836Y-107072221D01*
X134061954Y-106970600D01*
X134009646Y-106970600D01*
X133814432Y-107009430D01*
X133393432Y-106588430D01*
X152208635Y-106588430D01*
X153543000Y-107922795D01*
X154877365Y-106588430D01*
X154717582Y-106269661D01*
X153926813Y-105959677D01*
X153077613Y-105975903D01*
X152368418Y-106269661D01*
X152208635Y-106588430D01*
X133393432Y-106588430D01*
X129188401Y-102383399D01*
X128941839Y-102218652D01*
X128651000Y-102160800D01*
X117906149Y-102160800D01*
X117697973Y-102202209D01*
X117683142Y-102180012D01*
X117250036Y-101890621D01*
X116739154Y-101789000D01*
X116686846Y-101789000D01*
X116175964Y-101890621D01*
X115742858Y-102180012D01*
X115453467Y-102613118D01*
X115351846Y-103124000D01*
X115453467Y-103634882D01*
X115742858Y-104067988D01*
X116175964Y-104357379D01*
X116686846Y-104459000D01*
X116739154Y-104459000D01*
X117250036Y-104357379D01*
X117683142Y-104067988D01*
X117821886Y-103860342D01*
X117993788Y-103826148D01*
X118211317Y-103680800D01*
X128336198Y-103680800D01*
X132722155Y-108066757D01*
X132674646Y-108305600D01*
X132722155Y-108544443D01*
X131411799Y-109854799D01*
X131247052Y-110101361D01*
X131189200Y-110392200D01*
X131189200Y-114305954D01*
X131137400Y-114327357D01*
X130733376Y-114730677D01*
X130514450Y-115257909D01*
X130513952Y-115828787D01*
X130547344Y-115909601D01*
X128389003Y-115909601D01*
X128362456Y-115883054D01*
X128383950Y-115831291D01*
X128384448Y-115260413D01*
X128166443Y-114732800D01*
X127763123Y-114328776D01*
X127709200Y-114306385D01*
X127709200Y-110705200D01*
X127651348Y-110414361D01*
X127486601Y-110167799D01*
X126282802Y-108964000D01*
X127783373Y-108964000D01*
X127823382Y-109060829D01*
X128198596Y-109436698D01*
X128689087Y-109640368D01*
X129220183Y-109640831D01*
X129711029Y-109438018D01*
X130086898Y-109062804D01*
X130290568Y-108572313D01*
X130291031Y-108041217D01*
X130088218Y-107550371D01*
X129713004Y-107174502D01*
X129222513Y-106970832D01*
X128691417Y-106970369D01*
X128200571Y-107173182D01*
X127929280Y-107444000D01*
X125985189Y-107444000D01*
X126102803Y-107160756D01*
X126103197Y-106709225D01*
X125930767Y-106291914D01*
X125611765Y-105972355D01*
X125194756Y-105799197D01*
X124743225Y-105798803D01*
X124325914Y-105971233D01*
X124122793Y-106174000D01*
X114767853Y-106174000D01*
X112619451Y-104025598D01*
X112764098Y-103881204D01*
X112967768Y-103390713D01*
X112968231Y-102859617D01*
X112765418Y-102368771D01*
X112390204Y-101992902D01*
X111899713Y-101789232D01*
X111368617Y-101788769D01*
X110877771Y-101991582D01*
X110504703Y-102364000D01*
X105306209Y-102364000D01*
X104782291Y-102146450D01*
X104211413Y-102145952D01*
X103683800Y-102363957D01*
X103279776Y-102767277D01*
X103060850Y-103294509D01*
X103060352Y-103865387D01*
X103278357Y-104393000D01*
X103681677Y-104797024D01*
X104208909Y-105015950D01*
X104779787Y-105016448D01*
X105307400Y-104798443D01*
X105711424Y-104395123D01*
X105923661Y-103884000D01*
X110505345Y-103884000D01*
X110875796Y-104255098D01*
X110903353Y-104266541D01*
X110930852Y-104404788D01*
X111095599Y-104651350D01*
X113761249Y-107317000D01*
X93888455Y-107317000D01*
X93518004Y-106945902D01*
X93027513Y-106742232D01*
X92496417Y-106741769D01*
X92005571Y-106944582D01*
X91629702Y-107319796D01*
X91426032Y-107810287D01*
X91425569Y-108341383D01*
X88298320Y-108341383D01*
X88269001Y-108297505D01*
X88009000Y-108037504D01*
X88009000Y-105645459D01*
X88210645Y-105444165D01*
X88383803Y-105027156D01*
X88384197Y-104575625D01*
X88211767Y-104158314D01*
X87892765Y-103838755D01*
X87695878Y-103757000D01*
X91676400Y-103757000D01*
X91816812Y-103967142D01*
X92249918Y-104256533D01*
X92760800Y-104358154D01*
X93271682Y-104256533D01*
X93704788Y-103967142D01*
X93845200Y-103757000D01*
X98060447Y-103757000D01*
X98060352Y-103865387D01*
X98278357Y-104393000D01*
X98681677Y-104797024D01*
X99208909Y-105015950D01*
X99779787Y-105016448D01*
X100307400Y-104798443D01*
X100711424Y-104395123D01*
X100930350Y-103867891D01*
X100930848Y-103297013D01*
X100712843Y-102769400D01*
X100309523Y-102365376D01*
X99782291Y-102146450D01*
X99211413Y-102145952D01*
X98991060Y-102237000D01*
X93845200Y-102237000D01*
X93704788Y-102026858D01*
X93271682Y-101737467D01*
X92760800Y-101635846D01*
X92249918Y-101737467D01*
X91816812Y-102026858D01*
X91676400Y-102237000D01*
X86512400Y-102237000D01*
X86221561Y-102294852D01*
X86070961Y-102395479D01*
X85754225Y-102395203D01*
X85336914Y-102567633D01*
X85017355Y-102886635D01*
X84844197Y-103303644D01*
X84843892Y-103652960D01*
X84209000Y-103652960D01*
X83973683Y-103697238D01*
X83757559Y-103836310D01*
X83612569Y-104048510D01*
X83561560Y-104300400D01*
X83561560Y-105300400D01*
X83605838Y-105535717D01*
X83744910Y-105751841D01*
X83949000Y-105891290D01*
X83949000Y-106015600D01*
X83139200Y-106825400D01*
X82974453Y-107071962D01*
X82916601Y-107362801D01*
X82916601Y-109735910D01*
X82677754Y-109688400D01*
X82625446Y-109688400D01*
X82114564Y-109790021D01*
X81681458Y-110079412D01*
X81392067Y-110512518D01*
X81290446Y-111023400D01*
X81392067Y-111534282D01*
X81681458Y-111967388D01*
X81840800Y-112073856D01*
X81840800Y-113835941D01*
X81755593Y-113921000D01*
X75751798Y-113921000D01*
X75751848Y-113863413D01*
X75533843Y-113335800D01*
X75130523Y-112931776D01*
X74603291Y-112712850D01*
X74032413Y-112712352D01*
X73504800Y-112930357D01*
X73100776Y-113333677D01*
X72881850Y-113860909D01*
X72881352Y-114431787D01*
X70751352Y-114431787D01*
X70751848Y-113863413D01*
X70533843Y-113335800D01*
X70130523Y-112931776D01*
X69603291Y-112712850D01*
X69032413Y-112712352D01*
X68504800Y-112930357D01*
X68100776Y-113333677D01*
X68046744Y-113463800D01*
X62168648Y-113463800D01*
X61983620Y-113016000D01*
X61383559Y-112414891D01*
X60599141Y-112089172D01*
X59749785Y-112088430D01*
X58964800Y-112412780D01*
X58363691Y-113012841D01*
X58037972Y-113797259D01*
X58037230Y-114646615D01*
X51637000Y-114646615D01*
X51637000Y-109429550D01*
X58037600Y-109429550D01*
X58037600Y-110770109D01*
X58134273Y-111003498D01*
X58312901Y-111182127D01*
X58546290Y-111278800D01*
X59886850Y-111278800D01*
X60045600Y-111120050D01*
X60045600Y-109270800D01*
X60299600Y-109270800D01*
X60299600Y-111120050D01*
X60458350Y-111278800D01*
X61798910Y-111278800D01*
X62032299Y-111182127D01*
X62210927Y-111003498D01*
X62307600Y-110770109D01*
X62307600Y-109429550D01*
X62148850Y-109270800D01*
X60299600Y-109270800D01*
X60045600Y-109270800D01*
X58196350Y-109270800D01*
X58037600Y-109429550D01*
X51637000Y-109429550D01*
X51637000Y-108752092D01*
X52871601Y-107517491D01*
X58037600Y-107517491D01*
X58037600Y-108858050D01*
X58196350Y-109016800D01*
X60045600Y-109016800D01*
X60045600Y-107167550D01*
X60299600Y-107167550D01*
X60299600Y-109016800D01*
X62148850Y-109016800D01*
X62307600Y-108858050D01*
X62307600Y-107517491D01*
X62210927Y-107284102D01*
X62032299Y-107105473D01*
X61798910Y-107008800D01*
X60458350Y-107008800D01*
X60299600Y-107167550D01*
X60045600Y-107167550D01*
X59886850Y-107008800D01*
X58546290Y-107008800D01*
X58312901Y-107105473D01*
X58134273Y-107284102D01*
X58037600Y-107517491D01*
X52871601Y-107517491D01*
X59222092Y-101167000D01*
X153782308Y-101167000D01*
X161367400Y-108752092D01*
M02*
