G04 #@! TF.FileFunction,Soldermask,Top*
%FSLAX46Y46*%
G04 Gerber Fmt 4.6, Leading zero omitted, Abs format (unit mm)*
G04 Created by KiCad (PCBNEW 4.0.6) date 06/17/17 08:19:30*
%MOMM*%
%LPD*%
G01*
G04 APERTURE LIST*
%ADD10C,0.100000*%
%ADD11C,2.000000*%
%ADD12R,3.400000X3.400000*%
%ADD13C,3.400000*%
%ADD14R,1.400000X1.400000*%
%ADD15O,1.400000X1.400000*%
%ADD16C,1.400000*%
%ADD17C,1.800000*%
%ADD18O,1.800000X1.800000*%
G04 APERTURE END LIST*
D10*
D11*
X69316600Y-114147600D03*
X74316600Y-114147600D03*
X98196400Y-113614200D03*
X98196400Y-118614200D03*
X104495600Y-103581200D03*
X99495600Y-103581200D03*
X89179400Y-125446800D03*
X89179400Y-120446800D03*
X126949200Y-115544600D03*
X131949200Y-115544600D03*
X118491000Y-108305600D03*
X118491000Y-113305600D03*
X131927600Y-121716800D03*
X126927600Y-121716800D03*
D12*
X60172600Y-109143800D03*
D13*
X60172600Y-114223800D03*
X60172600Y-119303800D03*
D14*
X108915200Y-108966000D03*
D15*
X110185200Y-108966000D03*
D12*
X153543000Y-118262400D03*
D13*
X153543000Y-113182400D03*
X153543000Y-108102400D03*
D16*
X85979000Y-103530400D03*
X87249000Y-104800400D03*
D14*
X84709000Y-104800400D03*
D16*
X81330800Y-115951000D03*
X82600800Y-114681000D03*
D14*
X82600800Y-117221000D03*
D16*
X123698000Y-108204000D03*
X124968000Y-106934000D03*
D14*
X124968000Y-109474000D03*
D17*
X108915200Y-113588800D03*
D18*
X103835200Y-113588800D03*
D17*
X87731600Y-111023400D03*
D18*
X82651600Y-111023400D03*
D17*
X74320400Y-120421400D03*
D18*
X69240400Y-120421400D03*
D17*
X92760800Y-108077000D03*
D18*
X92760800Y-102997000D03*
D17*
X83464400Y-125425200D03*
D18*
X83464400Y-120345200D03*
D17*
X128955800Y-108305600D03*
D18*
X134035800Y-108305600D03*
D17*
X137515600Y-108331000D03*
D18*
X142595600Y-108331000D03*
D17*
X93141800Y-125552200D03*
D18*
X98221800Y-125552200D03*
D17*
X111633000Y-103124000D03*
D18*
X116713000Y-103124000D03*
D17*
X137515600Y-113538000D03*
D18*
X142595600Y-113538000D03*
M02*
