M48
;DRILL file {KiCad 4.0.6} date 06/17/17 08:28:34
;FORMAT={-:-/ absolute / metric / decimal}
FMAT,2
METRIC,TZ
T1C0.600
T2C0.650
T3C0.700
T4C0.800
T5C1.520
%
G90
G05
M71
T1
X81.331Y-115.951
X82.601Y-114.681
X82.601Y-117.221
X84.709Y-104.8
X85.979Y-103.53
X87.249Y-104.8
X123.698Y-108.204
X124.968Y-106.934
X124.968Y-109.474
T2
X108.915Y-108.966
X110.185Y-108.966
T3
X69.24Y-120.421
X74.32Y-120.421
X82.652Y-111.023
X83.464Y-120.345
X83.464Y-125.425
X87.732Y-111.023
X92.761Y-102.997
X92.761Y-108.077
X93.142Y-125.552
X98.222Y-125.552
X103.835Y-113.589
X108.915Y-113.589
X111.633Y-103.124
X116.713Y-103.124
X128.956Y-108.306
X134.036Y-108.306
X137.516Y-108.331
X137.516Y-113.538
X142.596Y-108.331
X142.596Y-113.538
T4
X69.317Y-114.148
X74.317Y-114.148
X89.179Y-120.447
X89.179Y-125.447
X98.196Y-113.614
X98.196Y-118.614
X99.496Y-103.581
X104.496Y-103.581
X118.491Y-108.306
X118.491Y-113.306
X126.928Y-121.717
X126.949Y-115.545
X131.928Y-121.717
X131.949Y-115.545
T5
X60.173Y-109.144
X60.173Y-114.224
X60.173Y-119.304
X153.543Y-108.102
X153.543Y-113.182
X153.543Y-118.262
T0
M30
